<?xml version="1.0" standalone="no"?>
<!DOCTYPE svg PUBLIC "-//W3C//DTD SVG 20010904//EN"
 "http://www.w3.org/TR/2001/REC-SVG-20010904/DTD/svg10.dtd">
<svg version="1.0" xmlns="http://www.w3.org/2000/svg"
 width="211.000000pt" height="211.000000pt" viewBox="0 0 211.000000 211.000000"
 preserveAspectRatio="xMidYMid meet">
<metadata>
Created by potrace 1.14, written by Peter Selinger 2001-2017
</metadata>
<g transform="translate(0.000000,211.000000) scale(0.100000,-0.100000)"
fill="#000000" stroke="none">
<path d="M716 1558 c-19 -11 -365 -266 -396 -291 -8 -7 -45 -34 -82 -60 -103
-73 -128 -100 -128 -136 0 -42 34 -63 97 -60 26 1 67 1 91 0 l42 -1 0 -218 c0
-172 3 -222 14 -238 14 -18 34 -19 667 -19 429 0 659 3 673 10 33 16 33 68 2
93 -34 26 -33 38 3 45 31 7 47 34 36 66 -7 22 -32 31 -60 21 -17 -6 -20 -16
-20 -61 l0 -54 -595 0 -595 0 -1 218 c-2 247 -2 246 -75 253 -23 2 -44 6 -46
8 -5 5 378 288 396 293 9 2 82 -45 163 -105 159 -118 176 -128 192 -112 17 17
23 12 30 -23 5 -27 22 -45 94 -99 106 -80 131 -87 152 -47 21 37 2 75 -58 120
-31 24 -60 47 -64 52 -3 6 -6 71 -6 145 0 166 0 165 -109 167 -105 2 -133 -8
-134 -48 -1 -18 -2 -36 -4 -42 -1 -5 -3 -16 -3 -22 -1 -7 -54 26 -118 72 -64
47 -121 85 -128 85 -6 0 -20 -6 -30 -12z m159 -108 c74 -55 136 -100 139 -100
2 0 4 35 4 77 l-1 76 83 1 c45 1 87 -2 93 -6 6 -4 11 -60 11 -151 1 -80 3
-147 6 -149 3 -3 33 -24 68 -48 52 -36 62 -47 62 -73 0 -37 -7 -35 -114 45
l-84 63 0 105 c0 173 3 162 -34 158 l-32 -3 -1 -97 c0 -58 -4 -98 -10 -98 -5
-1 -80 51 -167 115 -86 63 -159 115 -163 115 -4 0 -68 -46 -143 -102 -174
-129 -266 -197 -320 -235 -23 -18 -37 -33 -30 -35 7 -2 50 -4 95 -4 67 1 83
-2 83 -14 1 -8 0 -115 0 -237 0 -123 3 -223 7 -224 4 0 289 -1 633 -2 344 -1
624 -5 623 -9 -2 -5 -3 -16 -3 -26 0 -18 -26 -19 -660 -19 l-660 0 0 238 0
239 -115 0 -115 0 0 28 c0 24 24 45 196 172 108 80 242 180 298 222 55 43 104
78 108 78 4 0 68 -45 143 -100z m840 -720 c0 -18 -6 -26 -21 -28 -17 -2 -20 2
-20 28 0 26 3 30 20 28 15 -2 21 -10 21 -28z"/>
<path d="M635 993 c-95 -24 -128 -169 -55 -242 33 -33 67 -40 128 -28 64 12
51 28 -17 20 -57 -5 -61 -4 -90 25 -29 29 -38 59 -32 112 7 62 58 102 118 93
25 -4 33 -11 38 -34 9 -38 22 -37 23 1 0 19 -6 33 -16 39 -25 13 -74 20 -97
14z"/>
<path d="M846 983 c-25 -13 -28 -19 -24 -56 3 -32 -2 -50 -19 -76 -13 -19 -23
-45 -23 -58 0 -26 40 -72 65 -74 8 -1 21 -2 28 -3 6 -1 29 4 50 12 30 11 44
12 63 3 31 -14 54 -14 54 -1 0 6 -7 10 -16 10 -29 0 -56 20 -45 34 9 11 17 39
20 69 1 4 10 7 22 7 11 0 17 5 14 10 -8 13 -95 13 -95 1 0 -5 8 -11 18 -13 16
-3 17 -8 10 -35 -5 -18 -13 -33 -18 -33 -20 0 -91 86 -101 122 -12 45 1 78 28
73 10 -2 21 -4 24 -4 4 -1 10 -12 13 -26 8 -33 24 -24 20 11 -1 14 -4 27 -6
29 -12 12 -58 11 -82 -2z m69 -239 c-17 -13 -55 -10 -87 7 -20 11 -24 58 -7
90 10 19 14 17 61 -32 45 -47 49 -54 33 -65z"/>
<path d="M1133 992 c-35 -2 -63 -7 -63 -12 0 -6 7 -10 15 -10 12 0 15 -19 15
-111 0 -95 -3 -114 -17 -125 -16 -12 -10 -13 40 -14 31 0 57 4 57 10 0 6 -11
10 -24 10 -13 0 -26 6 -28 13 -4 10 -3 59 1 86 2 12 74 6 79 -7 8 -25 19 -10
18 23 -2 35 -16 63 -16 32 0 -9 -6 -17 -12 -18 -7 -1 -25 -2 -40 -3 -29 -3
-29 -3 -31 62 l-1 37 57 3 c53 3 58 1 67 -22 13 -35 20 -32 20 8 0 32 -2 34
-37 37 -21 2 -66 3 -100 1z"/>
<path d="M1782 972 c-11 -11 -17 -30 -16 -47 1 -17 3 -40 3 -53 1 -13 5 -21
10 -17 6 3 8 21 6 41 -3 31 0 35 19 32 17 -2 20 -9 18 -35 -2 -17 2 -34 8 -38
8 -5 10 8 8 42 -3 43 -5 48 -25 47 -13 -1 -23 4 -23 12 0 7 10 14 23 16 19 3
20 4 4 10 -11 5 -24 1 -35 -10z"/>
<path d="M1449 978 c-7 -12 -4 -120 2 -124 5 -3 9 19 9 49 0 46 3 55 20 60 10
3 24 -1 30 -8 8 -10 6 -17 -11 -28 l-21 -16 21 -30 c28 -40 48 -40 25 -1 -16
27 -17 31 -2 47 25 27 6 53 -37 53 -19 0 -36 -1 -36 -2z"/>
<path d="M1578 943 c-39 -9 -33 -79 8 -89 29 -8 54 11 54 40 0 37 -26 57 -62
49z m42 -32 c14 -26 -15 -58 -36 -40 -15 12 -19 41 -7 52 12 13 32 7 43 -12z"/>
<path d="M1670 936 c-5 -5 -10 -22 -10 -38 0 -53 72 -63 85 -11 10 42 -45 79
-75 49z m58 -32 c4 -31 -22 -49 -42 -29 -12 13 -14 21 -5 36 13 25 43 21 47
-7z"/>
<path d="M1869 934 c-4 -46 0 -88 9 -80 4 4 7 22 7 39 0 26 5 33 23 35 20 3
22 -1 22 -38 0 -25 4 -39 10 -35 13 8 13 72 1 80 -22 13 -71 12 -72 -1z"/>
<path d="M1987 938 c-20 -10 -23 -58 -5 -76 7 -7 20 -12 30 -12 10 0 18 -4 18
-9 0 -5 -11 -8 -25 -6 -14 1 -25 -2 -25 -7 0 -5 15 -8 33 -6 32 3 32 4 35 61
2 31 -1 57 -5 58 -4 0 -15 2 -24 4 -8 1 -23 -1 -32 -7z m48 -40 c1 -31 -16
-42 -38 -25 -11 9 -13 18 -6 35 12 33 44 25 44 -10z"/>
<path d="M1449 803 c-6 -35 -4 -115 3 -119 4 -3 8 20 8 50 0 53 1 56 24 56 34
0 41 -16 15 -34 l-21 -15 21 -30 c29 -40 48 -40 24 -1 -12 21 -14 33 -7 38 17
12 24 40 11 49 -16 12 -77 17 -78 6z"/>
<path d="M1865 800 c3 -5 8 -10 11 -10 2 0 4 5 4 10 0 6 -5 10 -11 10 -5 0 -7
-4 -4 -10z"/>
<path d="M1570 770 c-19 -11 -21 -57 -4 -74 17 -18 64 -22 64 -5 0 6 -8 8 -19
4 -10 -3 -24 1 -31 10 -11 13 -8 15 17 15 36 0 42 5 36 30 -5 19 -44 32 -63
20z m45 -20 c4 -6 -5 -10 -20 -10 -15 0 -24 4 -20 10 3 6 12 10 20 10 8 0 17
-4 20 -10z"/>
<path d="M1775 769 c-17 -7 -16 -8 7 -8 34 -1 48 -21 15 -21 -34 0 -50 -21
-34 -44 9 -12 22 -16 42 -13 30 4 30 3 26 66 -1 22 -28 31 -56 20z m45 -59 c0
-4 -9 -10 -19 -13 -21 -5 -38 19 -18 26 15 5 37 -3 37 -13z"/>
<path d="M1860 730 c0 -32 4 -49 10 -45 6 3 10 24 10 45 0 21 -4 42 -10 45 -6
4 -10 -13 -10 -45z"/>
<path d="M1925 771 c-15 -5 -20 -15 -20 -41 0 -45 19 -56 19 -12 1 18 8 37 16
42 19 12 10 18 -15 11z"/>
<path d="M1969 764 c-17 -20 -3 -44 26 -44 14 0 25 -4 25 -10 0 -11 -12 -13
-45 -11 -17 2 -17 0 -5 -8 21 -15 46 -13 60 4 16 19 -3 45 -31 45 -11 0 -19 5
-19 10 0 6 14 10 32 10 36 0 34 7 -4 14 -16 3 -32 -1 -39 -10z"/>
</g>
</svg>
