<svg width="32" height="6" viewBox="0 0 32 6" fill="none" xmlns="http://www.w3.org/2000/svg">
<g clip-path="url(#clip0)">
<path d="M3.193 -0.186035L3.947 2.24796H6.386L4.413 3.75197L5.167 6.18597L3.193 4.68096L1.22 6.18597L1.974 3.75197L0 2.24796H2.439L3.193 -0.186035Z" fill="#BDA243"/>
<path d="M9.59695 -0.186035L10.35 2.24796H12.79L10.816 3.75197L11.57 6.18597L9.59695 4.68096L7.62295 6.18597L8.37695 3.75197L6.40295 2.24796H8.84295L9.59695 -0.186035Z" fill="#BDA243"/>
<path d="M16 -0.186035L16.754 2.24796H19.193L17.22 3.75197L17.974 6.18597L16 4.68096L14.026 6.18597L14.78 3.75197L12.807 2.24796H15.246L16 -0.186035Z" fill="#BDA243"/>
<path d="M22.403 -0.186035L23.157 2.24796H25.597L23.623 3.75197L24.377 6.18597L22.403 4.68096L20.43 6.18597L21.184 3.75197L19.21 2.24796H21.65L22.403 -0.186035Z" fill="#BDA243"/>
<path d="M28.807 -0.186035L29.561 2.24796H32L30.026 3.75197L30.78 6.18597L28.807 4.68096L26.833 6.18597L27.587 3.75197L25.614 2.24796H28.053L28.807 -0.186035Z" fill="#BDA243"/>
</g>
<defs>
<clipPath id="clip0">
<rect width="32" height="6" fill="white"/>
</clipPath>
</defs>
</svg>
