<svg xmlns="http://www.w3.org/2000/svg" width="268" height="452" viewBox="0 0 268 452">
  <g id="Group_42" data-name="Group 42" transform="translate(608 416) rotate(90)" style="mix-blend-mode: screen;isolation: isolate">
    <rect id="Rectangle_4321" data-name="Rectangle 4321" width="300" height="300" transform="translate(-416 340)" fill="none"/>
    <path id="Union_2" data-name="Union 2" d="M449.121,268v-2.881H452V268Zm-11.515,0v-2.881h2.879V268Zm-11.516,0v-2.881h2.879V268Zm-11.516,0v-2.881h2.879V268Zm-11.516,0v-2.881h2.879V268Zm-11.516,0v-2.881h2.879V268Zm-11.515,0v-2.881H382.9V268Zm-11.516,0v-2.881h2.879V268Zm-11.516,0v-2.881h2.879V268Zm-11.516,0v-2.881h2.879V268Zm-11.515,0v-2.881h2.879V268Zm-11.516,0v-2.881h2.879V268Zm-11.516,0v-2.881h2.879V268Zm-11.516,0v-2.881h2.879V268ZM287.9,268v-2.881h2.879V268Zm-11.515,0v-2.881h2.879V268Zm-11.516,0v-2.881h2.879V268Zm-11.516,0v-2.881h2.879V268Zm-11.516,0v-2.881h2.879V268Zm-11.515,0v-2.881H233.2V268ZM218.8,268v-2.881h2.879V268Zm-11.516,0v-2.881h2.879V268Zm-11.516,0v-2.881h2.879V268Zm-11.516,0v-2.881h2.879V268Zm-11.515,0v-2.881h2.879V268Zm-11.516,0v-2.881H164.1V268Zm-11.516,0v-2.881h2.879V268Zm-11.516,0v-2.881h2.879V268Zm-11.515,0v-2.881h2.879V268Zm-11.516,0v-2.881h2.879V268Zm-11.516,0v-2.881h2.879V268Zm-11.516,0v-2.881h2.879V268Zm-11.516,0v-2.881h2.879V268ZM69.1,268v-2.881h2.879V268ZM57.58,268v-2.881h2.879V268Zm-11.516,0v-2.881h2.879V268Zm-11.516,0v-2.881h2.879V268Zm-11.515,0v-2.881h2.879V268Zm-11.516,0v-2.881h2.879V268ZM0,268v-2.881H2.879V268Zm449.121-11.526v-2.882H452v2.882Zm-11.515,0v-2.882h2.879v2.882Zm-11.516,0v-2.882h2.879v2.882Zm-11.516,0v-2.882h2.879v2.882Zm-11.516,0v-2.882h2.879v2.882Zm-11.516,0v-2.882h2.879v2.882Zm-11.515,0v-2.882H382.9v2.882Zm-11.516,0v-2.882h2.879v2.882Zm-11.516,0v-2.882h2.879v2.882Zm-11.516,0v-2.882h2.879v2.882Zm-11.515,0v-2.882h2.879v2.882Zm-11.516,0v-2.882h2.879v2.882Zm-11.516,0v-2.882h2.879v2.882Zm-11.516,0v-2.882h2.879v2.882Zm-11.516,0v-2.882h2.879v2.882Zm-11.515,0v-2.882h2.879v2.882Zm-11.516,0v-2.882h2.879v2.882Zm-11.516,0v-2.882h2.879v2.882Zm-11.516,0v-2.882h2.879v2.882Zm-11.515,0v-2.882H233.2v2.882Zm-11.516,0v-2.882h2.879v2.882Zm-11.516,0v-2.882h2.879v2.882Zm-11.516,0v-2.882h2.879v2.882Zm-11.516,0v-2.882h2.879v2.882Zm-11.515,0v-2.882h2.879v2.882Zm-11.516,0v-2.882H164.1v2.882Zm-11.516,0v-2.882h2.879v2.882Zm-11.516,0v-2.882h2.879v2.882Zm-11.515,0v-2.882h2.879v2.882Zm-11.516,0v-2.882h2.879v2.882Zm-11.516,0v-2.882h2.879v2.882Zm-11.516,0v-2.882h2.879v2.882Zm-11.516,0v-2.882h2.879v2.882Zm-11.515,0v-2.882h2.879v2.882Zm-11.516,0v-2.882h2.879v2.882Zm-11.516,0v-2.882h2.879v2.882Zm-11.516,0v-2.882h2.879v2.882Zm-11.515,0v-2.882h2.879v2.882Zm-11.516,0v-2.882h2.879v2.882ZM0,256.473v-2.882H2.879v2.882Zm449.121-11.527v-2.882H452v2.882Zm-11.515,0v-2.882h2.879v2.882Zm-11.516,0v-2.882h2.879v2.882Zm-11.516,0v-2.882h2.879v2.882Zm-11.516,0v-2.882h2.879v2.882Zm-11.516,0v-2.882h2.879v2.882Zm-11.515,0v-2.882H382.9v2.882Zm-11.516,0v-2.882h2.879v2.882Zm-11.516,0v-2.882h2.879v2.882Zm-11.516,0v-2.882h2.879v2.882Zm-11.515,0v-2.882h2.879v2.882Zm-11.516,0v-2.882h2.879v2.882Zm-11.516,0v-2.882h2.879v2.882Zm-11.516,0v-2.882h2.879v2.882Zm-11.516,0v-2.882h2.879v2.882Zm-11.515,0v-2.882h2.879v2.882Zm-11.516,0v-2.882h2.879v2.882Zm-11.516,0v-2.882h2.879v2.882Zm-11.516,0v-2.882h2.879v2.882Zm-11.515,0v-2.882H233.2v2.882Zm-11.516,0v-2.882h2.879v2.882Zm-11.516,0v-2.882h2.879v2.882Zm-11.516,0v-2.882h2.879v2.882Zm-11.516,0v-2.882h2.879v2.882Zm-11.515,0v-2.882h2.879v2.882Zm-11.516,0v-2.882H164.1v2.882Zm-11.516,0v-2.882h2.879v2.882Zm-11.516,0v-2.882h2.879v2.882Zm-11.515,0v-2.882h2.879v2.882Zm-11.516,0v-2.882h2.879v2.882Zm-11.516,0v-2.882h2.879v2.882Zm-11.516,0v-2.882h2.879v2.882Zm-11.516,0v-2.882h2.879v2.882Zm-11.515,0v-2.882h2.879v2.882Zm-11.516,0v-2.882h2.879v2.882Zm-11.516,0v-2.882h2.879v2.882Zm-11.516,0v-2.882h2.879v2.882Zm-11.515,0v-2.882h2.879v2.882Zm-11.516,0v-2.882h2.879v2.882ZM0,244.946v-2.882H2.879v2.882Zm449.121-11.527v-2.881H452v2.881Zm-11.515,0v-2.881h2.879v2.881Zm-11.516,0v-2.881h2.879v2.881Zm-11.516,0v-2.881h2.879v2.881Zm-11.516,0v-2.881h2.879v2.881Zm-11.516,0v-2.881h2.879v2.881Zm-11.515,0v-2.881H382.9v2.881Zm-11.516,0v-2.881h2.879v2.881Zm-11.516,0v-2.881h2.879v2.881Zm-11.516,0v-2.881h2.879v2.881Zm-11.515,0v-2.881h2.879v2.881Zm-11.516,0v-2.881h2.879v2.881Zm-11.516,0v-2.881h2.879v2.881Zm-11.516,0v-2.881h2.879v2.881Zm-11.516,0v-2.881h2.879v2.881Zm-11.515,0v-2.881h2.879v2.881Zm-11.516,0v-2.881h2.879v2.881Zm-11.516,0v-2.881h2.879v2.881Zm-11.516,0v-2.881h2.879v2.881Zm-11.515,0v-2.881H233.2v2.881Zm-11.516,0v-2.881h2.879v2.881Zm-11.516,0v-2.881h2.879v2.881Zm-11.516,0v-2.881h2.879v2.881Zm-11.516,0v-2.881h2.879v2.881Zm-11.515,0v-2.881h2.879v2.881Zm-11.516,0v-2.881H164.1v2.881Zm-11.516,0v-2.881h2.879v2.881Zm-11.516,0v-2.881h2.879v2.881Zm-11.515,0v-2.881h2.879v2.881Zm-11.516,0v-2.881h2.879v2.881Zm-11.516,0v-2.881h2.879v2.881Zm-11.516,0v-2.881h2.879v2.881Zm-11.516,0v-2.881h2.879v2.881Zm-11.515,0v-2.881h2.879v2.881Zm-11.516,0v-2.881h2.879v2.881Zm-11.516,0v-2.881h2.879v2.881Zm-11.516,0v-2.881h2.879v2.881Zm-11.515,0v-2.881h2.879v2.881Zm-11.516,0v-2.881h2.879v2.881ZM0,233.419v-2.881H2.879v2.881Zm449.121-11.527v-2.881H452v2.881Zm-11.515,0v-2.881h2.879v2.881Zm-11.516,0v-2.881h2.879v2.881Zm-11.516,0v-2.881h2.879v2.881Zm-11.516,0v-2.881h2.879v2.881Zm-11.516,0v-2.881h2.879v2.881Zm-11.515,0v-2.881H382.9v2.881Zm-11.516,0v-2.881h2.879v2.881Zm-11.516,0v-2.881h2.879v2.881Zm-11.516,0v-2.881h2.879v2.881Zm-11.515,0v-2.881h2.879v2.881Zm-11.516,0v-2.881h2.879v2.881Zm-11.516,0v-2.881h2.879v2.881Zm-11.516,0v-2.881h2.879v2.881Zm-11.516,0v-2.881h2.879v2.881Zm-11.515,0v-2.881h2.879v2.881Zm-11.516,0v-2.881h2.879v2.881Zm-11.516,0v-2.881h2.879v2.881Zm-11.516,0v-2.881h2.879v2.881Zm-11.515,0v-2.881H233.2v2.881Zm-11.516,0v-2.881h2.879v2.881Zm-11.516,0v-2.881h2.879v2.881Zm-11.516,0v-2.881h2.879v2.881Zm-11.516,0v-2.881h2.879v2.881Zm-11.515,0v-2.881h2.879v2.881Zm-11.516,0v-2.881H164.1v2.881Zm-11.516,0v-2.881h2.879v2.881Zm-11.516,0v-2.881h2.879v2.881Zm-11.515,0v-2.881h2.879v2.881Zm-11.516,0v-2.881h2.879v2.881Zm-11.516,0v-2.881h2.879v2.881Zm-11.516,0v-2.881h2.879v2.881Zm-11.516,0v-2.881h2.879v2.881Zm-11.515,0v-2.881h2.879v2.881Zm-11.516,0v-2.881h2.879v2.881Zm-11.516,0v-2.881h2.879v2.881Zm-11.516,0v-2.881h2.879v2.881Zm-11.515,0v-2.881h2.879v2.881Zm-11.516,0v-2.881h2.879v2.881ZM0,221.892v-2.881H2.879v2.881Zm449.121-11.527v-2.881H452v2.881Zm-11.515,0v-2.881h2.879v2.881Zm-11.516,0v-2.881h2.879v2.881Zm-11.516,0v-2.881h2.879v2.881Zm-11.516,0v-2.881h2.879v2.881Zm-11.516,0v-2.881h2.879v2.881Zm-11.515,0v-2.881H382.9v2.881Zm-11.516,0v-2.881h2.879v2.881Zm-11.516,0v-2.881h2.879v2.881Zm-11.516,0v-2.881h2.879v2.881Zm-11.515,0v-2.881h2.879v2.881Zm-11.516,0v-2.881h2.879v2.881Zm-11.516,0v-2.881h2.879v2.881Zm-11.516,0v-2.881h2.879v2.881Zm-11.516,0v-2.881h2.879v2.881Zm-11.515,0v-2.881h2.879v2.881Zm-11.516,0v-2.881h2.879v2.881Zm-11.516,0v-2.881h2.879v2.881Zm-11.516,0v-2.881h2.879v2.881Zm-11.515,0v-2.881H233.2v2.881Zm-11.516,0v-2.881h2.879v2.881Zm-11.516,0v-2.881h2.879v2.881Zm-11.516,0v-2.881h2.879v2.881Zm-11.516,0v-2.881h2.879v2.881Zm-11.515,0v-2.881h2.879v2.881Zm-11.516,0v-2.881H164.1v2.881Zm-11.516,0v-2.881h2.879v2.881Zm-11.516,0v-2.881h2.879v2.881Zm-11.515,0v-2.881h2.879v2.881Zm-11.516,0v-2.881h2.879v2.881Zm-11.516,0v-2.881h2.879v2.881Zm-11.516,0v-2.881h2.879v2.881Zm-11.516,0v-2.881h2.879v2.881Zm-11.515,0v-2.881h2.879v2.881Zm-11.516,0v-2.881h2.879v2.881Zm-11.516,0v-2.881h2.879v2.881Zm-11.516,0v-2.881h2.879v2.881Zm-11.515,0v-2.881h2.879v2.881Zm-11.516,0v-2.881h2.879v2.881ZM0,210.365v-2.881H2.879v2.881Zm449.121-11.526v-2.882H452v2.882Zm-11.515,0v-2.882h2.879v2.882Zm-11.516,0v-2.882h2.879v2.882Zm-11.516,0v-2.882h2.879v2.882Zm-11.516,0v-2.882h2.879v2.882Zm-11.516,0v-2.882h2.879v2.882Zm-11.515,0v-2.882H382.9v2.882Zm-11.516,0v-2.882h2.879v2.882Zm-11.516,0v-2.882h2.879v2.882Zm-11.516,0v-2.882h2.879v2.882Zm-11.515,0v-2.882h2.879v2.882Zm-11.516,0v-2.882h2.879v2.882Zm-11.516,0v-2.882h2.879v2.882Zm-11.516,0v-2.882h2.879v2.882Zm-11.516,0v-2.882h2.879v2.882Zm-11.515,0v-2.882h2.879v2.882Zm-11.516,0v-2.882h2.879v2.882Zm-11.516,0v-2.882h2.879v2.882Zm-11.516,0v-2.882h2.879v2.882Zm-11.515,0v-2.882H233.2v2.882Zm-11.516,0v-2.882h2.879v2.882Zm-11.516,0v-2.882h2.879v2.882Zm-11.516,0v-2.882h2.879v2.882Zm-11.516,0v-2.882h2.879v2.882Zm-11.515,0v-2.882h2.879v2.882Zm-11.516,0v-2.882H164.1v2.882Zm-11.516,0v-2.882h2.879v2.882Zm-11.516,0v-2.882h2.879v2.882Zm-11.515,0v-2.882h2.879v2.882Zm-11.516,0v-2.882h2.879v2.882Zm-11.516,0v-2.882h2.879v2.882Zm-11.516,0v-2.882h2.879v2.882Zm-11.516,0v-2.882h2.879v2.882Zm-11.515,0v-2.882h2.879v2.882Zm-11.516,0v-2.882h2.879v2.882Zm-11.516,0v-2.882h2.879v2.882Zm-11.516,0v-2.882h2.879v2.882Zm-11.515,0v-2.882h2.879v2.882Zm-11.516,0v-2.882h2.879v2.882ZM0,198.839v-2.882H2.879v2.882Zm449.121-11.527V184.43H452v2.882Zm-11.515,0V184.43h2.879v2.882Zm-11.516,0V184.43h2.879v2.882Zm-11.516,0V184.43h2.879v2.882Zm-11.516,0V184.43h2.879v2.882Zm-11.516,0V184.43h2.879v2.882Zm-11.515,0V184.43H382.9v2.882Zm-11.516,0V184.43h2.879v2.882Zm-11.516,0V184.43h2.879v2.882Zm-11.516,0V184.43h2.879v2.882Zm-11.515,0V184.43h2.879v2.882Zm-11.516,0V184.43h2.879v2.882Zm-11.516,0V184.43h2.879v2.882Zm-11.516,0V184.43h2.879v2.882Zm-11.516,0V184.43h2.879v2.882Zm-11.515,0V184.43h2.879v2.882Zm-11.516,0V184.43h2.879v2.882Zm-11.516,0V184.43h2.879v2.882Zm-11.516,0V184.43h2.879v2.882Zm-11.515,0V184.43H233.2v2.882Zm-11.516,0V184.43h2.879v2.882Zm-11.516,0V184.43h2.879v2.882Zm-11.516,0V184.43h2.879v2.882Zm-11.516,0V184.43h2.879v2.882Zm-11.515,0V184.43h2.879v2.882Zm-11.516,0V184.43H164.1v2.882Zm-11.516,0V184.43h2.879v2.882Zm-11.516,0V184.43h2.879v2.882Zm-11.515,0V184.43h2.879v2.882Zm-11.516,0V184.43h2.879v2.882Zm-11.516,0V184.43h2.879v2.882Zm-11.516,0V184.43h2.879v2.882Zm-11.516,0V184.43h2.879v2.882Zm-11.515,0V184.43h2.879v2.882Zm-11.516,0V184.43h2.879v2.882Zm-11.516,0V184.43h2.879v2.882Zm-11.516,0V184.43h2.879v2.882Zm-11.515,0V184.43h2.879v2.882Zm-11.516,0V184.43h2.879v2.882ZM0,187.312V184.43H2.879v2.882Zm449.121-11.527V172.9H452v2.881Zm-11.515,0V172.9h2.879v2.881Zm-11.516,0V172.9h2.879v2.881Zm-11.516,0V172.9h2.879v2.881Zm-11.516,0V172.9h2.879v2.881Zm-11.516,0V172.9h2.879v2.881Zm-11.515,0V172.9H382.9v2.881Zm-11.516,0V172.9h2.879v2.881Zm-11.516,0V172.9h2.879v2.881Zm-11.516,0V172.9h2.879v2.881Zm-11.515,0V172.9h2.879v2.881Zm-11.516,0V172.9h2.879v2.881Zm-11.516,0V172.9h2.879v2.881Zm-11.516,0V172.9h2.879v2.881Zm-11.516,0V172.9h2.879v2.881Zm-11.515,0V172.9h2.879v2.881Zm-11.516,0V172.9h2.879v2.881Zm-11.516,0V172.9h2.879v2.881Zm-11.516,0V172.9h2.879v2.881Zm-11.515,0V172.9H233.2v2.881Zm-11.516,0V172.9h2.879v2.881Zm-11.516,0V172.9h2.879v2.881Zm-11.516,0V172.9h2.879v2.881Zm-11.516,0V172.9h2.879v2.881Zm-11.515,0V172.9h2.879v2.881Zm-11.516,0V172.9H164.1v2.881Zm-11.516,0V172.9h2.879v2.881Zm-11.516,0V172.9h2.879v2.881Zm-11.515,0V172.9h2.879v2.881Zm-11.516,0V172.9h2.879v2.881Zm-11.516,0V172.9h2.879v2.881Zm-11.516,0V172.9h2.879v2.881Zm-11.516,0V172.9h2.879v2.881Zm-11.515,0V172.9h2.879v2.881Zm-11.516,0V172.9h2.879v2.881Zm-11.516,0V172.9h2.879v2.881Zm-11.516,0V172.9h2.879v2.881Zm-11.515,0V172.9h2.879v2.881Zm-11.516,0V172.9h2.879v2.881ZM0,175.785V172.9H2.879v2.881Zm449.121-11.527v-2.881H452v2.881Zm-11.515,0v-2.881h2.879v2.881Zm-11.516,0v-2.881h2.879v2.881Zm-11.516,0v-2.881h2.879v2.881Zm-11.516,0v-2.881h2.879v2.881Zm-11.516,0v-2.881h2.879v2.881Zm-11.515,0v-2.881H382.9v2.881Zm-11.516,0v-2.881h2.879v2.881Zm-11.516,0v-2.881h2.879v2.881Zm-11.516,0v-2.881h2.879v2.881Zm-11.515,0v-2.881h2.879v2.881Zm-11.516,0v-2.881h2.879v2.881Zm-11.516,0v-2.881h2.879v2.881Zm-11.516,0v-2.881h2.879v2.881Zm-11.516,0v-2.881h2.879v2.881Zm-11.515,0v-2.881h2.879v2.881Zm-11.516,0v-2.881h2.879v2.881Zm-11.516,0v-2.881h2.879v2.881Zm-11.516,0v-2.881h2.879v2.881Zm-11.515,0v-2.881H233.2v2.881Zm-11.516,0v-2.881h2.879v2.881Zm-11.516,0v-2.881h2.879v2.881Zm-11.516,0v-2.881h2.879v2.881Zm-11.516,0v-2.881h2.879v2.881Zm-11.515,0v-2.881h2.879v2.881Zm-11.516,0v-2.881H164.1v2.881Zm-11.516,0v-2.881h2.879v2.881Zm-11.516,0v-2.881h2.879v2.881Zm-11.515,0v-2.881h2.879v2.881Zm-11.516,0v-2.881h2.879v2.881Zm-11.516,0v-2.881h2.879v2.881Zm-11.516,0v-2.881h2.879v2.881Zm-11.516,0v-2.881h2.879v2.881Zm-11.515,0v-2.881h2.879v2.881Zm-11.516,0v-2.881h2.879v2.881Zm-11.516,0v-2.881h2.879v2.881Zm-11.516,0v-2.881h2.879v2.881Zm-11.515,0v-2.881h2.879v2.881Zm-11.516,0v-2.881h2.879v2.881ZM0,164.258v-2.881H2.879v2.881Zm449.121-11.526v-2.882H452v2.882Zm-11.515,0v-2.882h2.879v2.882Zm-11.516,0v-2.882h2.879v2.882Zm-11.516,0v-2.882h2.879v2.882Zm-11.516,0v-2.882h2.879v2.882Zm-11.516,0v-2.882h2.879v2.882Zm-11.515,0v-2.882H382.9v2.882Zm-11.516,0v-2.882h2.879v2.882Zm-11.516,0v-2.882h2.879v2.882Zm-11.516,0v-2.882h2.879v2.882Zm-11.515,0v-2.882h2.879v2.882Zm-11.516,0v-2.882h2.879v2.882Zm-11.516,0v-2.882h2.879v2.882Zm-11.516,0v-2.882h2.879v2.882Zm-11.516,0v-2.882h2.879v2.882Zm-11.515,0v-2.882h2.879v2.882Zm-11.516,0v-2.882h2.879v2.882Zm-11.516,0v-2.882h2.879v2.882Zm-11.516,0v-2.882h2.879v2.882Zm-11.515,0v-2.882H233.2v2.882Zm-11.516,0v-2.882h2.879v2.882Zm-11.516,0v-2.882h2.879v2.882Zm-11.516,0v-2.882h2.879v2.882Zm-11.516,0v-2.882h2.879v2.882Zm-11.515,0v-2.882h2.879v2.882Zm-11.516,0v-2.882H164.1v2.882Zm-11.516,0v-2.882h2.879v2.882Zm-11.516,0v-2.882h2.879v2.882Zm-11.515,0v-2.882h2.879v2.882Zm-11.516,0v-2.882h2.879v2.882Zm-11.516,0v-2.882h2.879v2.882Zm-11.516,0v-2.882h2.879v2.882Zm-11.516,0v-2.882h2.879v2.882Zm-11.515,0v-2.882h2.879v2.882Zm-11.516,0v-2.882h2.879v2.882Zm-11.516,0v-2.882h2.879v2.882Zm-11.516,0v-2.882h2.879v2.882Zm-11.515,0v-2.882h2.879v2.882Zm-11.516,0v-2.882h2.879v2.882ZM0,152.731v-2.882H2.879v2.882ZM449.121,141.2v-2.882H452V141.2Zm-11.515,0v-2.882h2.879V141.2Zm-11.516,0v-2.882h2.879V141.2Zm-11.516,0v-2.882h2.879V141.2Zm-11.516,0v-2.882h2.879V141.2Zm-11.516,0v-2.882h2.879V141.2Zm-11.515,0v-2.882H382.9V141.2Zm-11.516,0v-2.882h2.879V141.2Zm-11.516,0v-2.882h2.879V141.2Zm-11.516,0v-2.882h2.879V141.2Zm-11.515,0v-2.882h2.879V141.2Zm-11.516,0v-2.882h2.879V141.2Zm-11.516,0v-2.882h2.879V141.2Zm-11.516,0v-2.882h2.879V141.2Zm-11.516,0v-2.882h2.879V141.2Zm-11.515,0v-2.882h2.879V141.2Zm-11.516,0v-2.882h2.879V141.2Zm-11.516,0v-2.882h2.879V141.2Zm-11.516,0v-2.882h2.879V141.2Zm-11.515,0v-2.882H233.2V141.2Zm-11.516,0v-2.882h2.879V141.2Zm-11.516,0v-2.882h2.879V141.2Zm-11.516,0v-2.882h2.879V141.2Zm-11.516,0v-2.882h2.879V141.2Zm-11.515,0v-2.882h2.879V141.2Zm-11.516,0v-2.882H164.1V141.2Zm-11.516,0v-2.882h2.879V141.2Zm-11.516,0v-2.882h2.879V141.2Zm-11.515,0v-2.882h2.879V141.2Zm-11.516,0v-2.882h2.879V141.2Zm-11.516,0v-2.882h2.879V141.2Zm-11.516,0v-2.882h2.879V141.2Zm-11.516,0v-2.882h2.879V141.2Zm-11.515,0v-2.882h2.879V141.2Zm-11.516,0v-2.882h2.879V141.2Zm-11.516,0v-2.882h2.879V141.2Zm-11.516,0v-2.882h2.879V141.2Zm-11.515,0v-2.882h2.879V141.2Zm-11.516,0v-2.882h2.879V141.2ZM0,141.2v-2.882H2.879V141.2Zm449.121-11.527V126.8H452v2.881Zm-11.515,0V126.8h2.879v2.881Zm-11.516,0V126.8h2.879v2.881Zm-11.516,0V126.8h2.879v2.881Zm-11.516,0V126.8h2.879v2.881Zm-11.516,0V126.8h2.879v2.881Zm-11.515,0V126.8H382.9v2.881Zm-11.516,0V126.8h2.879v2.881Zm-11.516,0V126.8h2.879v2.881Zm-11.516,0V126.8h2.879v2.881Zm-11.515,0V126.8h2.879v2.881Zm-11.516,0V126.8h2.879v2.881Zm-11.516,0V126.8h2.879v2.881Zm-11.516,0V126.8h2.879v2.881Zm-11.516,0V126.8h2.879v2.881Zm-11.515,0V126.8h2.879v2.881Zm-11.516,0V126.8h2.879v2.881Zm-11.516,0V126.8h2.879v2.881Zm-11.516,0V126.8h2.879v2.881Zm-11.515,0V126.8H233.2v2.881Zm-11.516,0V126.8h2.879v2.881Zm-11.516,0V126.8h2.879v2.881Zm-11.516,0V126.8h2.879v2.881Zm-11.516,0V126.8h2.879v2.881Zm-11.515,0V126.8h2.879v2.881Zm-11.516,0V126.8H164.1v2.881Zm-11.516,0V126.8h2.879v2.881Zm-11.516,0V126.8h2.879v2.881Zm-11.515,0V126.8h2.879v2.881Zm-11.516,0V126.8h2.879v2.881Zm-11.516,0V126.8h2.879v2.881Zm-11.516,0V126.8h2.879v2.881Zm-11.516,0V126.8h2.879v2.881Zm-11.515,0V126.8h2.879v2.881Zm-11.516,0V126.8h2.879v2.881Zm-11.516,0V126.8h2.879v2.881Zm-11.516,0V126.8h2.879v2.881Zm-11.515,0V126.8h2.879v2.881Zm-11.516,0V126.8h2.879v2.881ZM0,129.677V126.8H2.879v2.881ZM449.121,118.15v-2.881H452v2.881Zm-11.515,0v-2.881h2.879v2.881Zm-11.516,0v-2.881h2.879v2.881Zm-11.516,0v-2.881h2.879v2.881Zm-11.516,0v-2.881h2.879v2.881Zm-11.516,0v-2.881h2.879v2.881Zm-11.515,0v-2.881H382.9v2.881Zm-11.516,0v-2.881h2.879v2.881Zm-11.516,0v-2.881h2.879v2.881Zm-11.516,0v-2.881h2.879v2.881Zm-11.515,0v-2.881h2.879v2.881Zm-11.516,0v-2.881h2.879v2.881Zm-11.516,0v-2.881h2.879v2.881Zm-11.516,0v-2.881h2.879v2.881Zm-11.516,0v-2.881h2.879v2.881Zm-11.515,0v-2.881h2.879v2.881Zm-11.516,0v-2.881h2.879v2.881Zm-11.516,0v-2.881h2.879v2.881Zm-11.516,0v-2.881h2.879v2.881Zm-11.515,0v-2.881H233.2v2.881Zm-11.516,0v-2.881h2.879v2.881Zm-11.516,0v-2.881h2.879v2.881Zm-11.516,0v-2.881h2.879v2.881Zm-11.516,0v-2.881h2.879v2.881Zm-11.515,0v-2.881h2.879v2.881Zm-11.516,0v-2.881H164.1v2.881Zm-11.516,0v-2.881h2.879v2.881Zm-11.516,0v-2.881h2.879v2.881Zm-11.515,0v-2.881h2.879v2.881Zm-11.516,0v-2.881h2.879v2.881Zm-11.516,0v-2.881h2.879v2.881Zm-11.516,0v-2.881h2.879v2.881Zm-11.516,0v-2.881h2.879v2.881Zm-11.515,0v-2.881h2.879v2.881Zm-11.516,0v-2.881h2.879v2.881Zm-11.516,0v-2.881h2.879v2.881Zm-11.516,0v-2.881h2.879v2.881Zm-11.515,0v-2.881h2.879v2.881Zm-11.516,0v-2.881h2.879v2.881ZM0,118.15v-2.881H2.879v2.881Zm449.121-11.527v-2.881H452v2.881Zm-11.515,0v-2.881h2.879v2.881Zm-11.516,0v-2.881h2.879v2.881Zm-11.516,0v-2.881h2.879v2.881Zm-11.516,0v-2.881h2.879v2.881Zm-11.516,0v-2.881h2.879v2.881Zm-11.515,0v-2.881H382.9v2.881Zm-11.516,0v-2.881h2.879v2.881Zm-11.516,0v-2.881h2.879v2.881Zm-11.516,0v-2.881h2.879v2.881Zm-11.515,0v-2.881h2.879v2.881Zm-11.516,0v-2.881h2.879v2.881Zm-11.516,0v-2.881h2.879v2.881Zm-11.516,0v-2.881h2.879v2.881Zm-11.516,0v-2.881h2.879v2.881Zm-11.515,0v-2.881h2.879v2.881Zm-11.516,0v-2.881h2.879v2.881Zm-11.516,0v-2.881h2.879v2.881Zm-11.516,0v-2.881h2.879v2.881Zm-11.515,0v-2.881H233.2v2.881Zm-11.516,0v-2.881h2.879v2.881Zm-11.516,0v-2.881h2.879v2.881Zm-11.516,0v-2.881h2.879v2.881Zm-11.516,0v-2.881h2.879v2.881Zm-11.515,0v-2.881h2.879v2.881Zm-11.516,0v-2.881H164.1v2.881Zm-11.516,0v-2.881h2.879v2.881Zm-11.516,0v-2.881h2.879v2.881Zm-11.515,0v-2.881h2.879v2.881Zm-11.516,0v-2.881h2.879v2.881Zm-11.516,0v-2.881h2.879v2.881Zm-11.516,0v-2.881h2.879v2.881Zm-11.516,0v-2.881h2.879v2.881Zm-11.515,0v-2.881h2.879v2.881Zm-11.516,0v-2.881h2.879v2.881Zm-11.516,0v-2.881h2.879v2.881Zm-11.516,0v-2.881h2.879v2.881Zm-11.515,0v-2.881h2.879v2.881Zm-11.516,0v-2.881h2.879v2.881ZM0,106.623v-2.881H2.879v2.881ZM449.121,95.1V92.215H452V95.1Zm-11.515,0V92.215h2.879V95.1Zm-11.516,0V92.215h2.879V95.1Zm-11.516,0V92.215h2.879V95.1Zm-11.516,0V92.215h2.879V95.1Zm-11.516,0V92.215h2.879V95.1Zm-11.515,0V92.215H382.9V95.1Zm-11.516,0V92.215h2.879V95.1Zm-11.516,0V92.215h2.879V95.1Zm-11.516,0V92.215h2.879V95.1Zm-11.515,0V92.215h2.879V95.1Zm-11.516,0V92.215h2.879V95.1Zm-11.516,0V92.215h2.879V95.1Zm-11.516,0V92.215h2.879V95.1Zm-11.516,0V92.215h2.879V95.1Zm-11.515,0V92.215h2.879V95.1Zm-11.516,0V92.215h2.879V95.1Zm-11.516,0V92.215h2.879V95.1Zm-11.516,0V92.215h2.879V95.1Zm-11.515,0V92.215H233.2V95.1Zm-11.516,0V92.215h2.879V95.1Zm-11.516,0V92.215h2.879V95.1Zm-11.516,0V92.215h2.879V95.1Zm-11.516,0V92.215h2.879V95.1Zm-11.515,0V92.215h2.879V95.1Zm-11.516,0V92.215H164.1V95.1Zm-11.516,0V92.215h2.879V95.1Zm-11.516,0V92.215h2.879V95.1Zm-11.515,0V92.215h2.879V95.1Zm-11.516,0V92.215h2.879V95.1Zm-11.516,0V92.215h2.879V95.1Zm-11.516,0V92.215h2.879V95.1Zm-11.516,0V92.215h2.879V95.1ZM69.1,95.1V92.215h2.879V95.1Zm-11.516,0V92.215h2.879V95.1Zm-11.516,0V92.215h2.879V95.1Zm-11.516,0V92.215h2.879V95.1Zm-11.515,0V92.215h2.879V95.1Zm-11.516,0V92.215h2.879V95.1ZM0,95.1V92.215H2.879V95.1ZM449.121,83.57V80.688H452V83.57Zm-11.515,0V80.688h2.879V83.57Zm-11.516,0V80.688h2.879V83.57Zm-11.516,0V80.688h2.879V83.57Zm-11.516,0V80.688h2.879V83.57Zm-11.516,0V80.688h2.879V83.57Zm-11.515,0V80.688H382.9V83.57Zm-11.516,0V80.688h2.879V83.57Zm-11.516,0V80.688h2.879V83.57Zm-11.516,0V80.688h2.879V83.57Zm-11.515,0V80.688h2.879V83.57Zm-11.516,0V80.688h2.879V83.57Zm-11.516,0V80.688h2.879V83.57Zm-11.516,0V80.688h2.879V83.57Zm-11.516,0V80.688h2.879V83.57Zm-11.515,0V80.688h2.879V83.57Zm-11.516,0V80.688h2.879V83.57Zm-11.516,0V80.688h2.879V83.57Zm-11.516,0V80.688h2.879V83.57Zm-11.515,0V80.688H233.2V83.57Zm-11.516,0V80.688h2.879V83.57Zm-11.516,0V80.688h2.879V83.57Zm-11.516,0V80.688h2.879V83.57Zm-11.516,0V80.688h2.879V83.57Zm-11.515,0V80.688h2.879V83.57Zm-11.516,0V80.688H164.1V83.57Zm-11.516,0V80.688h2.879V83.57Zm-11.516,0V80.688h2.879V83.57Zm-11.515,0V80.688h2.879V83.57Zm-11.516,0V80.688h2.879V83.57Zm-11.516,0V80.688h2.879V83.57Zm-11.516,0V80.688h2.879V83.57Zm-11.516,0V80.688h2.879V83.57Zm-11.515,0V80.688h2.879V83.57Zm-11.516,0V80.688h2.879V83.57Zm-11.516,0V80.688h2.879V83.57Zm-11.516,0V80.688h2.879V83.57Zm-11.515,0V80.688h2.879V83.57Zm-11.516,0V80.688h2.879V83.57ZM0,83.57V80.688H2.879V83.57ZM449.121,72.043V69.161H452v2.881Zm-11.515,0V69.161h2.879v2.881Zm-11.516,0V69.161h2.879v2.881Zm-11.516,0V69.161h2.879v2.881Zm-11.516,0V69.161h2.879v2.881Zm-11.516,0V69.161h2.879v2.881Zm-11.515,0V69.161H382.9v2.881Zm-11.516,0V69.161h2.879v2.881Zm-11.516,0V69.161h2.879v2.881Zm-11.516,0V69.161h2.879v2.881Zm-11.515,0V69.161h2.879v2.881Zm-11.516,0V69.161h2.879v2.881Zm-11.516,0V69.161h2.879v2.881Zm-11.516,0V69.161h2.879v2.881Zm-11.516,0V69.161h2.879v2.881Zm-11.515,0V69.161h2.879v2.881Zm-11.516,0V69.161h2.879v2.881Zm-11.516,0V69.161h2.879v2.881Zm-11.516,0V69.161h2.879v2.881Zm-11.515,0V69.161H233.2v2.881Zm-11.516,0V69.161h2.879v2.881Zm-11.516,0V69.161h2.879v2.881Zm-11.516,0V69.161h2.879v2.881Zm-11.516,0V69.161h2.879v2.881Zm-11.515,0V69.161h2.879v2.881Zm-11.516,0V69.161H164.1v2.881Zm-11.516,0V69.161h2.879v2.881Zm-11.516,0V69.161h2.879v2.881Zm-11.515,0V69.161h2.879v2.881Zm-11.516,0V69.161h2.879v2.881Zm-11.516,0V69.161h2.879v2.881Zm-11.516,0V69.161h2.879v2.881Zm-11.516,0V69.161h2.879v2.881Zm-11.515,0V69.161h2.879v2.881Zm-11.516,0V69.161h2.879v2.881Zm-11.516,0V69.161h2.879v2.881Zm-11.516,0V69.161h2.879v2.881Zm-11.515,0V69.161h2.879v2.881Zm-11.516,0V69.161h2.879v2.881ZM0,72.043V69.161H2.879v2.881ZM449.121,60.516V57.634H452v2.881Zm-11.515,0V57.634h2.879v2.881Zm-11.516,0V57.634h2.879v2.881Zm-11.516,0V57.634h2.879v2.881Zm-11.516,0V57.634h2.879v2.881Zm-11.516,0V57.634h2.879v2.881Zm-11.515,0V57.634H382.9v2.881Zm-11.516,0V57.634h2.879v2.881Zm-11.516,0V57.634h2.879v2.881Zm-11.516,0V57.634h2.879v2.881Zm-11.515,0V57.634h2.879v2.881Zm-11.516,0V57.634h2.879v2.881Zm-11.516,0V57.634h2.879v2.881Zm-11.516,0V57.634h2.879v2.881Zm-11.516,0V57.634h2.879v2.881Zm-11.515,0V57.634h2.879v2.881Zm-11.516,0V57.634h2.879v2.881Zm-11.516,0V57.634h2.879v2.881Zm-11.516,0V57.634h2.879v2.881Zm-11.515,0V57.634H233.2v2.881Zm-11.516,0V57.634h2.879v2.881Zm-11.516,0V57.634h2.879v2.881Zm-11.516,0V57.634h2.879v2.881Zm-11.516,0V57.634h2.879v2.881Zm-11.515,0V57.634h2.879v2.881Zm-11.516,0V57.634H164.1v2.881Zm-11.516,0V57.634h2.879v2.881Zm-11.516,0V57.634h2.879v2.881Zm-11.515,0V57.634h2.879v2.881Zm-11.516,0V57.634h2.879v2.881Zm-11.516,0V57.634h2.879v2.881Zm-11.516,0V57.634h2.879v2.881Zm-11.516,0V57.634h2.879v2.881Zm-11.515,0V57.634h2.879v2.881Zm-11.516,0V57.634h2.879v2.881Zm-11.516,0V57.634h2.879v2.881Zm-11.516,0V57.634h2.879v2.881Zm-11.515,0V57.634h2.879v2.881Zm-11.516,0V57.634h2.879v2.881ZM0,60.516V57.634H2.879v2.881ZM449.121,48.99V46.107H452V48.99Zm-11.515,0V46.107h2.879V48.99Zm-11.516,0V46.107h2.879V48.99Zm-11.516,0V46.107h2.879V48.99Zm-11.516,0V46.107h2.879V48.99Zm-11.516,0V46.107h2.879V48.99Zm-11.515,0V46.107H382.9V48.99Zm-11.516,0V46.107h2.879V48.99Zm-11.516,0V46.107h2.879V48.99Zm-11.516,0V46.107h2.879V48.99Zm-11.515,0V46.107h2.879V48.99Zm-11.516,0V46.107h2.879V48.99Zm-11.516,0V46.107h2.879V48.99Zm-11.516,0V46.107h2.879V48.99Zm-11.516,0V46.107h2.879V48.99Zm-11.515,0V46.107h2.879V48.99Zm-11.516,0V46.107h2.879V48.99Zm-11.516,0V46.107h2.879V48.99Zm-11.516,0V46.107h2.879V48.99Zm-11.515,0V46.107H233.2V48.99Zm-11.516,0V46.107h2.879V48.99Zm-11.516,0V46.107h2.879V48.99Zm-11.516,0V46.107h2.879V48.99Zm-11.516,0V46.107h2.879V48.99Zm-11.515,0V46.107h2.879V48.99Zm-11.516,0V46.107H164.1V48.99Zm-11.516,0V46.107h2.879V48.99Zm-11.516,0V46.107h2.879V48.99Zm-11.515,0V46.107h2.879V48.99Zm-11.516,0V46.107h2.879V48.99Zm-11.516,0V46.107h2.879V48.99Zm-11.516,0V46.107h2.879V48.99Zm-11.516,0V46.107h2.879V48.99Zm-11.515,0V46.107h2.879V48.99Zm-11.516,0V46.107h2.879V48.99Zm-11.516,0V46.107h2.879V48.99Zm-11.516,0V46.107h2.879V48.99Zm-11.515,0V46.107h2.879V48.99Zm-11.516,0V46.107h2.879V48.99ZM0,48.99V46.107H2.879V48.99ZM449.121,37.463V34.58H452v2.882Zm-11.515,0V34.58h2.879v2.882Zm-11.516,0V34.58h2.879v2.882Zm-11.516,0V34.58h2.879v2.882Zm-11.516,0V34.58h2.879v2.882Zm-11.516,0V34.58h2.879v2.882Zm-11.515,0V34.58H382.9v2.882Zm-11.516,0V34.58h2.879v2.882Zm-11.516,0V34.58h2.879v2.882Zm-11.516,0V34.58h2.879v2.882Zm-11.515,0V34.58h2.879v2.882Zm-11.516,0V34.58h2.879v2.882Zm-11.516,0V34.58h2.879v2.882Zm-11.516,0V34.58h2.879v2.882Zm-11.516,0V34.58h2.879v2.882Zm-11.515,0V34.58h2.879v2.882Zm-11.516,0V34.58h2.879v2.882Zm-11.516,0V34.58h2.879v2.882Zm-11.516,0V34.58h2.879v2.882Zm-11.515,0V34.58H233.2v2.882Zm-11.516,0V34.58h2.879v2.882Zm-11.516,0V34.58h2.879v2.882Zm-11.516,0V34.58h2.879v2.882Zm-11.516,0V34.58h2.879v2.882Zm-11.515,0V34.58h2.879v2.882Zm-11.516,0V34.58H164.1v2.882Zm-11.516,0V34.58h2.879v2.882Zm-11.516,0V34.58h2.879v2.882Zm-11.515,0V34.58h2.879v2.882Zm-11.516,0V34.58h2.879v2.882Zm-11.516,0V34.58h2.879v2.882Zm-11.516,0V34.58h2.879v2.882Zm-11.516,0V34.58h2.879v2.882Zm-11.515,0V34.58h2.879v2.882Zm-11.516,0V34.58h2.879v2.882Zm-11.516,0V34.58h2.879v2.882Zm-11.516,0V34.58h2.879v2.882Zm-11.515,0V34.58h2.879v2.882Zm-11.516,0V34.58h2.879v2.882ZM0,37.463V34.58H2.879v2.882ZM449.121,25.935V23.054H452v2.881Zm-11.515,0V23.054h2.879v2.881Zm-11.516,0V23.054h2.879v2.881Zm-11.516,0V23.054h2.879v2.881Zm-11.516,0V23.054h2.879v2.881Zm-11.516,0V23.054h2.879v2.881Zm-11.515,0V23.054H382.9v2.881Zm-11.516,0V23.054h2.879v2.881Zm-11.516,0V23.054h2.879v2.881Zm-11.516,0V23.054h2.879v2.881Zm-11.515,0V23.054h2.879v2.881Zm-11.516,0V23.054h2.879v2.881Zm-11.516,0V23.054h2.879v2.881Zm-11.516,0V23.054h2.879v2.881Zm-11.516,0V23.054h2.879v2.881Zm-11.515,0V23.054h2.879v2.881Zm-11.516,0V23.054h2.879v2.881Zm-11.516,0V23.054h2.879v2.881Zm-11.516,0V23.054h2.879v2.881Zm-11.515,0V23.054H233.2v2.881Zm-11.516,0V23.054h2.879v2.881Zm-11.516,0V23.054h2.879v2.881Zm-11.516,0V23.054h2.879v2.881Zm-11.516,0V23.054h2.879v2.881Zm-11.515,0V23.054h2.879v2.881Zm-11.516,0V23.054H164.1v2.881Zm-11.516,0V23.054h2.879v2.881Zm-11.516,0V23.054h2.879v2.881Zm-11.515,0V23.054h2.879v2.881Zm-11.516,0V23.054h2.879v2.881Zm-11.516,0V23.054h2.879v2.881Zm-11.516,0V23.054h2.879v2.881Zm-11.516,0V23.054h2.879v2.881Zm-11.515,0V23.054h2.879v2.881Zm-11.516,0V23.054h2.879v2.881Zm-11.516,0V23.054h2.879v2.881Zm-11.516,0V23.054h2.879v2.881Zm-11.515,0V23.054h2.879v2.881Zm-11.516,0V23.054h2.879v2.881ZM0,25.935V23.054H2.879v2.881ZM449.121,14.408V11.527H452v2.881Zm-11.515,0V11.527h2.879v2.881Zm-11.516,0V11.527h2.879v2.881Zm-11.516,0V11.527h2.879v2.881Zm-11.516,0V11.527h2.879v2.881Zm-11.516,0V11.527h2.879v2.881Zm-11.515,0V11.527H382.9v2.881Zm-11.516,0V11.527h2.879v2.881Zm-11.516,0V11.527h2.879v2.881Zm-11.516,0V11.527h2.879v2.881Zm-11.515,0V11.527h2.879v2.881Zm-11.516,0V11.527h2.879v2.881Zm-11.516,0V11.527h2.879v2.881Zm-11.516,0V11.527h2.879v2.881Zm-11.516,0V11.527h2.879v2.881Zm-11.515,0V11.527h2.879v2.881Zm-11.516,0V11.527h2.879v2.881Zm-11.516,0V11.527h2.879v2.881Zm-11.516,0V11.527h2.879v2.881Zm-11.515,0V11.527H233.2v2.881Zm-11.516,0V11.527h2.879v2.881Zm-11.516,0V11.527h2.879v2.881Zm-11.516,0V11.527h2.879v2.881Zm-11.516,0V11.527h2.879v2.881Zm-11.515,0V11.527h2.879v2.881Zm-11.516,0V11.527H164.1v2.881Zm-11.516,0V11.527h2.879v2.881Zm-11.516,0V11.527h2.879v2.881Zm-11.515,0V11.527h2.879v2.881Zm-11.516,0V11.527h2.879v2.881Zm-11.516,0V11.527h2.879v2.881Zm-11.516,0V11.527h2.879v2.881Zm-11.516,0V11.527h2.879v2.881Zm-11.515,0V11.527h2.879v2.881Zm-11.516,0V11.527h2.879v2.881Zm-11.516,0V11.527h2.879v2.881Zm-11.516,0V11.527h2.879v2.881Zm-11.515,0V11.527h2.879v2.881Zm-11.516,0V11.527h2.879v2.881ZM0,14.408V11.527H2.879v2.881ZM449.121,2.881V0H452V2.881Zm-11.515,0V0h2.879V2.881Zm-11.516,0V0h2.879V2.881Zm-11.516,0V0h2.879V2.881Zm-11.516,0V0h2.879V2.881Zm-11.516,0V0h2.879V2.881Zm-11.515,0V0H382.9V2.881Zm-11.516,0V0h2.879V2.881Zm-11.516,0V0h2.879V2.881Zm-11.516,0V0h2.879V2.881Zm-11.515,0V0h2.879V2.881Zm-11.516,0V0h2.879V2.881Zm-11.516,0V0h2.879V2.881Zm-11.516,0V0h2.879V2.881Zm-11.516,0V0h2.879V2.881Zm-11.515,0V0h2.879V2.881Zm-11.516,0V0h2.879V2.881Zm-11.516,0V0h2.879V2.881Zm-11.516,0V0h2.879V2.881Zm-11.515,0V0H233.2V2.881Zm-11.516,0V0h2.879V2.881Zm-11.516,0V0h2.879V2.881Zm-11.516,0V0h2.879V2.881Zm-11.516,0V0h2.879V2.881Zm-11.515,0V0h2.879V2.881Zm-11.516,0V0H164.1V2.881Zm-11.516,0V0h2.879V2.881Zm-11.516,0V0h2.879V2.881Zm-11.515,0V0h2.879V2.881Zm-11.516,0V0h2.879V2.881Zm-11.516,0V0h2.879V2.881Zm-11.516,0V0h2.879V2.881Zm-11.516,0V0h2.879V2.881Zm-11.515,0V0h2.879V2.881Zm-11.516,0V0h2.879V2.881Zm-11.516,0V0h2.879V2.881Zm-11.516,0V0h2.879V2.881Zm-11.515,0V0h2.879V2.881Zm-11.516,0V0h2.879V2.881ZM0,2.881V0H2.879V2.881Z" transform="translate(36 608) rotate(180)" fill="#fcd95e"/>
  </g>
</svg>
