<svg width="58" height="60" viewBox="0 0 58 60" fill="none" xmlns="http://www.w3.org/2000/svg">
<path d="M6.02518 22.6689H0.944855V53.6068C0.944855 56.7288 3.2056 59.2319 6.02518 59.2319H49.208V53.6068H6.02518V22.6689Z" fill="#FFC700"/>
<path d="M44.4548 11.356V5.67801C44.4548 2.55511 42.1513 0 39.336 0H29.0984C26.283 0 23.9795 2.55511 23.9795 5.67801V11.356H11.1825V42.5851C11.1825 45.708 13.486 48.2631 16.3013 48.2631H52.133C54.9484 48.2631 57.2518 45.708 57.2518 42.5851V11.356H44.4548ZM29.0984 5.67801H39.336V11.356H29.0984V5.67801ZM52.133 42.5851H16.3013V17.034H52.133V42.5851Z" fill="#FFC700"/>
</svg>
