<svg width="62" height="51" viewBox="0 0 62 51" fill="none" xmlns="http://www.w3.org/2000/svg">
<path d="M3.01048 23.4444C2.97696 23.1156 3.02405 22.7845 3.14875 22.4721C3.27346 22.1597 3.47305 21.8727 3.73487 21.6295C3.99669 21.3862 4.31502 21.192 4.66966 21.0591C5.0243 20.9262 5.40751 20.8575 5.79497 20.8574H11.1333C11.8748 20.8574 12.5858 21.1083 13.1101 21.5548C13.6344 22.0013 13.929 22.6069 13.929 23.2384V45.858C13.929 46.4895 13.6344 47.0951 13.1101 47.5416C12.5858 47.9881 11.8748 48.239 11.1333 48.239H8.10559C7.40587 48.2391 6.73153 48.0158 6.21574 47.6131C5.69996 47.2104 5.38023 46.6576 5.3197 46.0639L3.01048 23.4444V23.4444Z" stroke="#FFC700" stroke-width="4.5563" stroke-linecap="round" stroke-linejoin="round"/>
<path d="M22.316 22.4945C22.316 21.4992 23.0429 20.6087 24.0982 20.1849C26.4032 19.2587 30.3298 17.3979 32.1008 14.8824C34.3835 11.6395 34.814 5.78101 34.8839 4.43931C34.8937 4.25121 34.8881 4.06311 34.9175 3.87739C35.2963 1.55234 40.5647 4.26788 42.5846 7.13937C43.6819 8.69655 43.8217 10.743 43.7071 12.3419C43.5826 14.0514 42.9942 15.7027 42.4169 17.3432L41.1868 20.8397H56.3631C56.795 20.8397 57.2211 20.9249 57.6078 21.0887C57.9946 21.2524 58.3316 21.4903 58.5923 21.7836C58.853 22.0769 59.0303 22.4177 59.1104 22.7792C59.1905 23.1407 59.1712 23.5131 59.0539 23.8671L51.5475 46.5057C51.3818 47.005 51.0291 47.4446 50.5432 47.7575C50.0572 48.0703 49.4645 48.2395 48.8553 48.2391H25.1116C24.3702 48.2391 23.6591 47.9883 23.1348 47.5417C22.6105 47.0952 22.316 46.4896 22.316 45.8581V22.4945Z" stroke="#FFC700" stroke-width="4.5563" stroke-linecap="round" stroke-linejoin="round"/>
</svg>
