<svg width="300" height="300" viewBox="0 0 300 300" fill="none" xmlns="http://www.w3.org/2000/svg">
<g clip-path="url(#clip0)">
<g style="mix-blend-mode:screen">
<g style="mix-blend-mode:screen">
<path d="M300 1.91085H296.775V9.53674e-06H300V1.91085ZM300 9.55356H296.775V7.64272H300V9.55356ZM300 17.1969H296.775V15.2861H300V17.1969ZM300 24.8403H296.775V22.9294H300V24.8403ZM300 32.4836H296.775L296.775 30.5728H300L300 32.4836ZM300 40.127H296.775V38.2162H300V40.127ZM300 47.7697H296.775V45.8628H300V47.7697ZM300 55.4131H296.775V53.5022H300V55.4131ZM300 63.0564H296.775V61.1456H300V63.0564ZM300 70.6998H296.775V68.7889H300V70.6998ZM300 78.3425H296.775V76.4317H300V78.3425ZM300 85.9858H296.775V84.075H300V85.9858ZM300 93.6292H296.775V91.7184H300V93.6292ZM300 101.273H296.775V99.3617H300V101.273ZM300 108.916H296.775V107.005H300V108.916ZM300 116.559H296.775V114.648H300V116.559ZM300 124.202H296.775V122.291H300V124.202ZM300 131.845H296.775V129.935H300V131.845ZM300 139.489H296.775V137.578H300V139.489ZM300 147.131H296.775V145.221H300V147.131ZM300 154.779H296.775V152.868H300V154.779ZM300 162.422H296.775V160.511H300V162.422ZM300 170.065H296.775V168.155H300V170.065ZM300 177.709H296.775V175.798H300V177.709ZM300 185.352H296.775V183.441H300V185.352ZM300 192.995H296.775V191.084H300V192.995ZM300 200.638H296.775V198.727H300V200.638ZM300 208.282H296.775V206.371H300V208.282ZM300 215.924H296.775V214.014H300V215.924ZM300 223.568H296.775V221.657H300V223.568ZM300 231.211H296.775V229.3H300V231.211ZM300 238.854H296.775V236.944H300V238.854ZM300 246.498H296.775V244.587H300V246.498ZM300 254.137H296.775V252.226H300V254.137ZM300 261.783H296.775V259.872H300V261.783ZM300 269.427H296.775V267.516H300V269.427ZM300 277.07H296.775V275.159H300V277.07ZM300 284.713H296.775V282.802H300V284.713ZM300 292.356H296.775V290.445H300V292.356ZM300 300H296.775V298.089H300V300ZM287.098 1.91085H283.872V9.53674e-06H287.098V1.91085ZM287.098 9.55356H283.872V7.64272H287.098V9.55356ZM287.098 17.1969H283.872V15.2861H287.098V17.1969ZM287.098 24.8403H283.872V22.9294H287.098V24.8403ZM287.098 32.4836H283.872L283.872 30.5728H287.098L287.098 32.4836ZM287.098 40.127H283.872V38.2162H287.098V40.127ZM287.098 47.7697H283.872V45.8628H287.098V47.7697ZM287.098 55.4131H283.872V53.5022H287.098V55.4131ZM287.098 63.0564H283.872V61.1456H287.098V63.0564ZM287.098 70.6998H283.872V68.7889H287.098V70.6998ZM287.098 78.3425H283.872V76.4317H287.098V78.3425ZM287.098 85.9858H283.872V84.075H287.098V85.9858ZM287.098 93.6292H283.872V91.7184H287.098V93.6292ZM287.098 101.273H283.872V99.3617H287.098V101.273ZM287.098 108.916H283.872V107.005H287.098V108.916ZM287.098 116.559H283.872V114.648H287.098V116.559ZM287.098 124.202H283.872V122.291H287.098V124.202ZM287.098 131.845H283.872V129.935H287.098V131.845ZM287.098 139.489H283.872V137.578H287.098V139.489ZM287.098 147.131H283.872V145.221H287.098V147.131ZM287.098 154.775H283.872V152.864H287.098V154.775ZM287.098 162.418H283.872V160.507H287.098V162.418ZM287.098 170.062H283.872V168.151H287.098V170.062ZM287.098 177.705H283.872V175.794H287.098V177.705ZM287.098 185.348H283.872V183.437H287.098V185.348ZM287.098 192.991H283.872V191.084H287.098V192.991ZM287.098 200.634H283.872V198.723H287.098V200.634ZM287.098 208.278H283.872V206.367H287.098V208.278ZM287.098 215.92H283.872V214.01H287.098V215.92ZM287.098 223.564H283.872V221.653H287.098V223.564ZM287.098 231.207H283.872V229.296H287.098V231.207ZM287.098 238.85H283.872V236.94H287.098V238.85ZM287.098 246.494H283.872V244.583H287.098V246.494ZM287.098 254.137H283.872V252.226H287.098V254.137ZM287.098 261.78H283.872V259.869H287.098V261.78ZM287.098 269.423H283.872V267.512H287.098V269.423ZM287.098 277.067H283.872V275.156H287.098V277.067ZM287.098 284.709L283.872 284.709V282.798H287.098V284.709ZM287.098 292.353H283.872V290.442L287.098 290.442V292.353ZM287.097 300H283.871V298.089H287.097V300ZM274.193 1.91085H270.967V9.53674e-06H274.193V1.91085ZM274.193 9.55356H270.967V7.64272H274.193V9.55356ZM274.193 17.1969H270.967V15.2861H274.193V17.1969ZM274.193 24.8403H270.967V22.9294H274.193V24.8403ZM274.193 32.4836H270.967L270.967 30.5728H274.193L274.193 32.4836ZM274.193 40.127H270.967V38.2162H274.193V40.127ZM274.193 47.7697H270.967V45.8628H274.193V47.7697ZM274.193 55.4131H270.967V53.5022H274.193V55.4131ZM274.193 63.0564H270.967V61.1456H274.193V63.0564ZM274.193 70.6998H270.967V68.7889H274.193V70.6998ZM274.193 78.3425H270.967V76.4317H274.193V78.3425ZM274.193 85.9858H270.967V84.075H274.193V85.9858ZM274.193 93.6292H270.967V91.7184H274.193V93.6292ZM274.193 101.273H270.967V99.3617H274.193V101.273ZM274.193 108.916H270.967V107.005H274.193V108.916ZM274.193 116.559H270.967V114.648H274.193V116.559ZM274.193 124.202H270.967V122.291H274.193V124.202ZM274.193 131.845H270.967V129.935H274.193V131.845ZM274.193 139.489H270.967V137.578H274.193V139.489ZM274.193 147.131H270.967V145.221H274.193V147.131ZM274.193 154.775H270.967V152.864H274.193V154.775ZM274.193 162.418H270.967V160.507H274.193V162.418ZM274.193 170.062H270.967V168.151H274.193V170.062ZM274.193 177.705H270.967V175.794H274.193V177.705ZM274.193 185.348H270.967V183.437H274.193V185.348ZM274.193 192.991H270.967V191.084H274.193V192.991ZM274.193 200.634H270.967V198.723H274.193V200.634ZM274.193 208.278H270.967V206.367H274.193V208.278ZM274.193 215.92H270.967V214.01H274.193V215.92ZM274.193 223.564H270.967V221.653H274.193V223.564ZM274.193 231.207H270.967V229.296H274.193V231.207ZM274.193 238.85H270.967V236.94H274.193V238.85ZM274.193 246.494H270.967V244.583H274.193V246.494ZM274.193 254.137H270.967V252.226H274.193V254.137ZM274.193 261.78H270.967V259.869H274.193V261.78ZM274.193 269.423H270.967V267.512H274.193V269.423ZM274.193 277.067H270.967V275.156H274.193V277.067ZM274.193 284.709H270.967V282.798H274.193V284.709ZM274.193 292.353H270.967V290.442H274.193V292.353ZM274.193 300H270.967V298.089H274.193V300ZM261.29 1.91085H258.065V9.53674e-06H261.29V1.91085ZM261.29 9.55356H258.065V7.64272H261.29V9.55356ZM261.29 17.1969H258.065V15.2861H261.29V17.1969ZM261.29 24.8403H258.065V22.9294H261.29V24.8403ZM261.29 32.4836H258.065L258.065 30.5728H261.29L261.29 32.4836ZM261.29 40.127H258.065V38.2162H261.29V40.127ZM261.29 47.7697H258.065V45.8628H261.29V47.7697ZM261.29 55.4131H258.065V53.5022H261.29V55.4131ZM261.29 63.0564H258.065V61.1456H261.29V63.0564ZM261.29 70.6998H258.065V68.7889H261.29V70.6998ZM261.29 78.3425H258.065V76.4317H261.29V78.3425ZM261.29 85.9858H258.065V84.075H261.29V85.9858ZM261.29 93.6292H258.065V91.7184H261.29V93.6292ZM261.29 101.273H258.065V99.3617H261.29V101.273ZM261.29 108.916H258.065V107.005H261.29V108.916ZM261.29 116.559H258.065V114.648H261.29V116.559ZM261.29 124.202H258.065V122.291H261.29V124.202ZM261.29 131.845H258.065V129.935H261.29V131.845ZM261.29 139.489H258.065V137.578H261.29V139.489ZM261.29 147.131H258.065V145.221H261.29V147.131ZM261.29 154.775H258.065V152.864H261.29V154.775ZM261.29 162.418H258.065V160.507H261.29V162.418ZM261.29 170.062H258.065V168.151H261.29V170.062ZM261.29 177.705H258.065V175.794H261.29V177.705ZM261.29 185.348H258.065V183.437H261.29V185.348ZM261.29 192.991H258.065V191.084H261.29V192.991ZM261.29 200.634H258.065V198.723H261.29V200.634ZM261.29 208.278H258.065V206.367H261.29V208.278ZM261.29 215.92H258.065V214.01H261.29V215.92ZM261.29 223.564H258.065V221.653H261.29V223.564ZM261.29 231.207H258.065V229.296H261.29V231.207ZM261.29 238.85H258.065V236.94H261.29V238.85ZM261.29 246.494H258.065V244.583H261.29V246.494ZM261.29 254.137H258.065V252.226H261.29V254.137ZM261.29 261.78H258.065V259.869H261.29V261.78ZM261.29 269.423H258.065V267.512H261.29V269.423ZM261.29 277.067H258.065V275.156H261.29V277.067ZM261.29 284.709H258.065V282.798H261.29V284.709ZM261.29 292.353H258.065V290.442H261.29V292.353ZM261.29 300H258.065V298.089H261.29V300ZM248.387 1.91085H245.162V9.53674e-06H248.387V1.91085ZM248.387 9.55356H245.162V7.64272H248.387V9.55356ZM248.387 17.1969H245.162V15.2861H248.387V17.1969ZM248.387 24.8403H245.162V22.9294H248.387V24.8403ZM248.387 32.4836H245.162V30.5728H248.387V32.4836ZM248.387 40.127H245.162V38.2162H248.387V40.127ZM248.387 47.7697H245.162V45.8628H248.387V47.7697ZM248.387 55.4131H245.162V53.5022H248.387V55.4131ZM248.387 63.0564H245.162V61.1456H248.387V63.0564ZM248.387 70.6998H245.162V68.7889H248.387V70.6998ZM248.387 78.3425H245.162L245.162 76.4317H248.387L248.387 78.3425ZM248.387 85.9858H245.162V84.075H248.387V85.9858ZM248.387 93.6292H245.162V91.7184H248.387V93.6292ZM248.387 101.273H245.162V99.3617H248.387V101.273ZM248.387 108.916H245.162V107.005H248.387V108.916ZM248.387 116.559H245.162V114.648H248.387V116.559ZM248.387 124.202H245.162V122.291H248.387V124.202ZM248.387 131.845H245.162V129.935H248.387V131.845ZM248.387 139.489H245.162V137.578H248.387V139.489ZM248.387 147.131H245.162V145.221H248.387V147.131ZM248.387 154.775H245.162V152.864H248.387V154.775ZM248.387 162.418H245.162V160.507H248.387V162.418ZM248.387 170.062H245.162V168.151H248.387V170.062ZM248.387 177.705H245.162V175.794H248.387V177.705ZM248.387 185.348H245.162V183.437H248.387V185.348ZM248.387 192.991H245.162V191.084H248.387V192.991ZM248.387 200.634H245.162V198.723H248.387V200.634ZM248.387 208.278H245.162V206.367H248.387V208.278ZM248.387 215.92H245.162V214.01H248.387V215.92ZM248.387 223.564H245.162V221.653H248.387V223.564ZM248.387 231.207H245.162V229.296H248.387V231.207ZM248.387 238.85H245.162V236.94H248.387V238.85ZM248.387 246.494H245.162V244.583H248.387V246.494ZM248.387 254.137H245.162V252.226H248.387V254.137ZM248.387 261.78H245.162V259.869H248.387V261.78ZM248.387 269.423H245.162V267.512H248.387V269.423ZM248.387 277.067H245.162V275.156H248.387V277.067ZM248.387 284.709H245.162V282.798H248.387V284.709ZM248.387 292.353H245.162V290.442H248.387V292.353ZM248.387 300H245.162V298.089H248.387V300ZM235.483 1.91085H232.258V9.53674e-06H235.483V1.91085ZM235.483 9.55356H232.258V7.64272H235.483V9.55356ZM235.483 17.1969H232.258V15.2861H235.483V17.1969ZM235.483 24.8403H232.258V22.9294H235.483V24.8403ZM235.483 32.4836H232.258V30.5728H235.483V32.4836ZM235.483 40.127H232.258V38.2162H235.483V40.127ZM235.483 47.7697H232.258V45.8628H235.483V47.7697ZM235.483 55.4131H232.258V53.5022H235.483V55.4131ZM235.483 63.0564H232.258V61.1456H235.483V63.0564ZM235.483 70.6998H232.258V68.7889H235.483V70.6998ZM235.483 78.3425H232.258L232.258 76.4317H235.483L235.483 78.3425ZM235.483 85.9858H232.258V84.075H235.483V85.9858ZM235.483 93.6292H232.258V91.7184H235.483V93.6292ZM235.483 101.273H232.258V99.3617H235.483V101.273ZM235.483 108.916H232.258V107.005H235.483V108.916ZM235.483 116.559H232.258V114.648H235.483V116.559ZM235.483 124.202H232.258V122.291H235.483V124.202ZM235.483 131.845H232.258V129.935H235.483V131.845ZM235.483 139.489H232.258V137.578H235.483V139.489ZM235.483 147.131H232.258V145.221H235.483V147.131ZM235.483 154.775H232.258V152.864H235.483V154.775ZM235.483 162.418H232.258V160.507H235.483V162.418ZM235.483 170.062H232.258V168.151H235.483V170.062ZM235.483 177.705H232.258V175.794H235.483V177.705ZM235.483 185.348H232.258V183.437H235.483V185.348ZM235.483 192.991H232.258V191.084H235.483V192.991ZM235.483 200.634H232.258V198.723H235.483V200.634ZM235.483 208.278H232.258V206.367H235.483V208.278ZM235.483 215.92H232.258V214.01H235.483V215.92ZM235.483 223.564H232.258V221.653H235.483V223.564ZM235.483 231.207H232.258V229.296H235.483V231.207ZM235.483 238.85H232.258V236.94H235.483V238.85ZM235.483 246.494H232.258V244.583H235.483V246.494ZM235.483 254.137H232.258V252.226H235.483V254.137ZM235.483 261.78H232.258V259.869H235.483V261.78ZM235.483 269.423H232.258V267.512H235.483V269.423ZM235.483 277.067H232.258V275.156H235.483V277.067ZM235.483 284.709H232.258V282.798H235.483V284.709ZM235.483 292.353H232.258V290.442H235.483V292.353ZM235.483 300H232.258V298.089H235.483V300ZM222.581 1.91085H219.355V9.53674e-06H222.581V1.91085ZM222.581 9.55356H219.355V7.64272H222.581V9.55356ZM222.581 17.1969H219.355V15.2861H222.581V17.1969ZM222.581 24.8403H219.355V22.9294H222.581V24.8403ZM222.581 32.4836H219.355V30.5728H222.581V32.4836ZM222.581 40.127H219.355V38.2162H222.581V40.127ZM222.581 47.7697H219.355V45.8628H222.581V47.7697ZM222.581 55.4131H219.355V53.5022H222.581V55.4131ZM222.581 63.0564H219.355V61.1456H222.581V63.0564ZM222.581 70.6998H219.355V68.7889H222.581V70.6998ZM222.581 78.3425H219.355L219.355 76.4317H222.581L222.581 78.3425ZM222.581 85.9858H219.355V84.075H222.581V85.9858ZM222.581 93.6292H219.355V91.7184H222.581V93.6292ZM222.581 101.273H219.355V99.3617H222.581V101.273ZM222.581 108.916H219.355V107.005H222.581V108.916ZM222.581 116.559H219.355V114.648H222.581V116.559ZM222.581 124.202H219.355V122.291H222.581V124.202ZM222.581 131.845H219.355V129.935H222.581V131.845ZM222.581 139.489H219.355V137.578H222.581V139.489ZM222.581 147.131H219.355V145.221H222.581V147.131ZM222.581 154.775H219.355V152.864H222.581V154.775ZM222.581 162.418H219.355V160.507H222.581V162.418ZM222.581 170.062H219.355V168.151H222.581V170.062ZM222.581 177.705H219.355V175.794H222.581V177.705ZM222.581 185.348H219.355V183.437H222.581V185.348ZM222.581 192.991H219.355V191.084H222.581V192.991ZM222.581 200.634H219.355V198.723H222.581V200.634ZM222.581 208.278H219.355V206.367H222.581V208.278ZM222.581 215.92H219.355V214.01H222.581V215.92ZM222.581 223.564H219.355V221.653H222.581V223.564ZM222.581 231.207H219.355V229.296H222.581V231.207ZM222.581 238.85H219.355V236.94H222.581V238.85ZM222.581 246.494H219.355V244.583H222.581V246.494ZM222.581 254.137H219.355V252.226H222.581V254.137ZM222.581 261.78H219.355V259.869H222.581V261.78ZM222.581 269.423H219.355V267.512H222.581V269.423ZM222.581 277.067H219.355V275.156H222.581V277.067ZM222.581 284.709H219.355V282.798H222.581V284.709ZM222.581 292.353H219.355V290.442H222.581V292.353ZM222.581 300H219.355V298.089H222.581V300ZM209.678 1.91085H206.451V9.53674e-06H209.678V1.91085ZM209.678 9.55356H206.451V7.64272H209.678V9.55356ZM209.678 17.1969H206.451V15.2861H209.678V17.1969ZM209.678 24.8403H206.451V22.9294H209.678V24.8403ZM209.678 32.4836H206.451V30.5728H209.678V32.4836ZM209.678 40.127H206.451V38.2162H209.678V40.127ZM209.678 47.7697H206.451V45.8628H209.678V47.7697ZM209.678 55.4131H206.451V53.5022H209.678V55.4131ZM209.678 63.0564H206.451V61.1456H209.678V63.0564ZM209.678 70.6998H206.451V68.7889H209.678V70.6998ZM209.678 78.3425H206.451L206.451 76.4317H209.678L209.678 78.3425ZM209.678 85.9858H206.451V84.075H209.678V85.9858ZM209.678 93.6292H206.451V91.7184H209.678V93.6292ZM209.678 101.273H206.451V99.3617H209.678V101.273ZM209.678 108.916H206.451V107.005H209.678V108.916ZM209.678 116.559H206.451V114.648H209.678V116.559ZM209.678 124.202H206.451V122.291H209.678V124.202ZM209.678 131.845H206.451V129.935H209.678V131.845ZM209.678 139.489H206.451V137.578H209.678V139.489ZM209.678 147.131H206.451V145.221H209.678V147.131ZM209.678 154.775H206.451V152.864H209.678V154.775ZM209.678 162.418H206.451V160.507H209.678V162.418ZM209.678 170.062H206.451V168.151H209.678V170.062ZM209.678 177.705L206.451 177.705V175.794L209.678 175.794V177.705ZM209.678 185.348L206.451 185.348V183.437L209.678 183.437V185.348ZM209.678 192.991L206.451 192.991V191.084L209.678 191.084V192.991ZM209.678 200.634L206.451 200.634V198.723L209.678 198.723V200.634ZM209.678 208.278L206.451 208.278V206.367L209.678 206.367V208.278ZM209.678 215.92L206.451 215.92V214.01L209.678 214.01V215.92ZM209.678 223.564L206.451 223.564V221.653L209.678 221.653V223.564ZM209.678 231.207L206.451 231.207V229.296L209.678 229.296V231.207ZM209.678 238.85H206.451V236.94H209.678V238.85ZM209.678 246.494H206.451V244.583H209.678V246.494ZM209.678 254.137H206.451V252.226H209.678V254.137ZM209.678 261.78H206.451V259.869H209.678V261.78ZM209.678 269.423H206.451V267.512H209.678V269.423ZM209.678 277.067H206.451V275.156H209.678V277.067ZM209.678 284.709H206.451V282.798H209.678V284.709ZM209.678 292.353H206.451V290.442H209.678V292.353ZM209.678 300H206.451V298.089H209.678V300ZM196.774 1.91085H193.545V9.53674e-06H196.77L196.774 1.91085ZM196.774 9.55356H193.545V7.64272H196.77L196.774 9.55356ZM196.774 17.1969H193.545V15.2861H196.77L196.774 17.1969ZM196.774 24.8403H193.545V22.9294H196.77L196.774 24.8403ZM196.774 32.4836H193.545V30.5728H196.77L196.774 32.4836ZM196.774 40.127H193.545V38.2162H196.77L196.774 40.127ZM196.774 47.7697H193.545V45.8628H196.77L196.774 47.7697ZM196.774 55.4131H193.545V53.5022H196.77L196.774 55.4131ZM196.774 63.0564H193.545V61.1456H196.77L196.774 63.0564ZM196.774 70.6998H193.545V68.7889H196.77L196.774 70.6998ZM196.774 78.3425H193.545L193.545 76.4317H196.77L196.774 78.3425ZM196.774 85.9858H193.545V84.075H196.77L196.774 85.9858ZM196.774 93.6292H193.545V91.7184H196.77L196.774 93.6292ZM196.774 101.273H193.545V99.3617H196.77L196.774 101.273ZM196.774 108.916H193.545V107.005H196.77L196.774 108.916ZM196.774 116.559H193.545V114.648H196.77L196.774 116.559ZM196.774 124.202H193.545V122.291H196.77L196.774 124.202ZM196.774 131.845H193.545V129.935H196.77L196.774 131.845ZM196.774 139.489H193.545V137.578H196.77L196.774 139.489ZM196.774 147.131H193.545V145.221H196.77L196.774 147.131ZM196.774 154.775H193.545V152.864H196.77L196.774 154.775ZM196.774 162.418H193.545V160.507H196.77L196.774 162.418ZM196.774 170.062H193.545V168.151H196.77L196.774 170.062ZM196.774 177.705H193.545V175.794H196.77L196.774 177.705ZM196.774 185.348H193.545V183.437H196.77L196.774 185.348ZM196.774 192.991H193.545V191.084H196.77L196.774 192.991ZM196.774 200.634H193.545V198.723H196.77L196.774 200.634ZM196.774 208.278H193.545V206.367H196.77L196.774 208.278ZM196.774 215.92H193.545V214.01H196.77L196.774 215.92ZM196.774 223.564H193.545V221.653H196.77L196.774 223.564ZM196.774 231.207H193.545V229.296H196.77L196.774 231.207ZM196.774 238.85H193.545V236.94H196.77L196.774 238.85ZM196.774 246.494H193.545V244.583H196.77L196.774 246.494ZM196.774 254.137H193.545V252.226H196.77L196.774 254.137ZM196.774 261.78H193.545V259.869H196.77L196.774 261.78ZM196.774 269.423H193.545V267.512H196.77L196.774 269.423ZM196.774 277.067H193.545V275.156H196.77L196.774 277.067ZM196.774 284.709H193.545V282.798H196.77L196.774 284.709ZM196.774 292.353H193.545V290.442H196.77L196.774 292.353ZM196.774 300H193.545V298.089H196.77L196.774 300ZM183.871 1.91085H180.646V9.53674e-06H183.871V1.91085ZM183.871 9.55356H180.646V7.64272H183.871V9.55356ZM183.871 17.1969H180.646V15.2861H183.871V17.1969ZM183.871 24.8403H180.646V22.9294H183.871V24.8403ZM183.871 32.4836H180.646V30.5728H183.871V32.4836ZM183.871 40.127H180.646V38.2162H183.871V40.127ZM183.871 47.7697H180.646V45.8628H183.871V47.7697ZM183.871 55.4131H180.646V53.5022H183.871V55.4131ZM183.871 63.0564H180.646V61.1456H183.871V63.0564ZM183.871 70.6998H180.646V68.7889H183.871V70.6998ZM183.871 78.3425H180.646L180.646 76.4317H183.871L183.871 78.3425ZM183.871 85.9858H180.646V84.075H183.871V85.9858ZM183.871 93.6292H180.646V91.7184H183.871V93.6292ZM183.871 101.273H180.646V99.3617H183.871V101.273ZM183.871 108.916H180.646V107.005H183.871V108.916ZM183.871 116.559H180.646V114.648H183.871V116.559ZM183.871 124.202H180.646V122.291H183.871V124.202ZM183.871 131.845H180.646V129.935H183.871V131.845ZM183.871 139.489H180.646V137.578H183.871V139.489ZM183.871 147.131H180.646V145.221H183.871V147.131ZM183.871 154.775H180.646V152.864H183.871V154.775ZM183.871 162.418H180.646V160.507H183.871V162.418ZM183.871 170.062H180.646V168.151H183.871V170.062ZM183.871 177.705H180.646V175.794H183.871V177.705ZM183.871 185.348H180.646V183.437H183.871V185.348ZM183.871 192.991H180.646V191.084H183.871V192.991ZM183.871 200.634H180.646V198.723H183.871V200.634ZM183.871 208.278H180.646V206.367H183.871V208.278ZM183.871 215.92H180.646V214.01H183.871V215.92ZM183.871 223.564H180.646V221.653H183.871V223.564ZM183.871 231.207H180.646V229.296H183.871V231.207ZM183.871 238.85H180.646V236.94H183.871V238.85ZM183.871 246.494H180.646V244.583H183.871V246.494ZM183.871 254.137H180.646V252.226H183.871V254.137ZM183.871 261.78H180.646V259.869H183.871V261.78ZM183.871 269.423H180.646V267.512H183.871V269.423ZM183.871 277.067H180.646V275.156H183.871V277.067ZM183.871 284.709H180.646V282.798H183.871V284.709ZM183.871 292.353H180.646V290.442H183.871V292.353ZM183.871 300H180.646V298.089H183.871V300ZM170.969 1.91085H167.743V9.53674e-06H170.969V1.91085ZM170.969 9.55356H167.743V7.64272H170.969V9.55356ZM170.969 17.1969H167.743V15.2861H170.969V17.1969ZM170.969 24.8403H167.743V22.9294H170.969V24.8403ZM170.969 32.4836H167.743V30.5728H170.969V32.4836ZM170.969 40.127H167.743V38.2162H170.969V40.127ZM170.969 47.7697H167.743V45.8628H170.969V47.7697ZM170.969 55.4131H167.743V53.5022H170.969V55.4131ZM170.969 63.0564H167.743V61.1456H170.969V63.0564ZM170.969 70.6998H167.743V68.7889H170.969V70.6998ZM170.969 78.3425H167.743L167.743 76.4317H170.969L170.969 78.3425ZM170.969 85.9858H167.743V84.075H170.969V85.9858ZM170.969 93.6292H167.743V91.7184H170.969V93.6292ZM170.969 101.273H167.743V99.3617H170.969V101.273ZM170.969 108.916H167.743V107.005H170.969V108.916ZM170.969 116.559H167.743V114.648H170.969V116.559ZM170.969 124.202H167.743V122.291H170.969V124.202ZM170.969 131.845H167.743V129.935H170.969V131.845ZM170.969 139.489H167.743V137.578H170.969V139.489ZM170.969 147.131H167.743V145.221H170.969V147.131ZM170.969 154.775H167.743V152.864H170.969V154.775ZM170.969 162.418H167.743V160.507H170.969V162.418ZM170.969 170.062H167.743V168.151H170.969V170.062ZM170.969 177.705H167.743V175.794H170.969V177.705ZM170.969 185.348H167.743V183.437H170.969V185.348ZM170.969 192.991H167.743V191.084H170.969V192.991ZM170.969 200.634H167.743V198.723H170.969V200.634ZM170.969 208.278H167.743V206.367H170.969V208.278ZM170.969 215.92H167.743V214.01H170.969V215.92ZM170.969 223.564H167.743V221.653H170.969V223.564ZM170.969 231.207H167.743V229.296H170.969V231.207ZM170.969 238.85H167.743V236.94H170.969V238.85ZM170.969 246.494H167.743V244.583H170.969V246.494ZM170.969 254.137H167.743V252.226H170.969V254.137ZM170.969 261.78H167.743V259.869H170.969V261.78ZM170.969 269.423H167.743V267.512H170.969V269.423ZM170.969 277.067H167.743V275.156H170.969V277.067ZM170.969 284.709H167.743V282.798H170.969V284.709ZM170.969 292.353H167.743V290.442H170.969V292.353ZM170.968 300H167.741V298.089H170.968V300ZM158.06 1.91085H154.834V9.53674e-06H158.06V1.91085ZM158.06 9.55356H154.834V7.64272H158.06V9.55356ZM158.06 17.1969H154.834V15.2861H158.06V17.1969ZM158.06 24.8403H154.834V22.9294H158.06V24.8403ZM158.06 32.4836H154.834V30.5728H158.06V32.4836ZM158.06 40.127H154.834V38.2162H158.06V40.127ZM158.06 47.7697H154.834V45.8628H158.06V47.7697ZM158.06 55.4131H154.834V53.5022H158.06V55.4131ZM158.06 63.0564H154.834V61.1456H158.06V63.0564ZM158.06 70.6998H154.834V68.7889H158.06V70.6998ZM158.06 78.3425H154.834L154.834 76.4317H158.06L158.06 78.3425ZM158.06 85.9858H154.834V84.075H158.06V85.9858ZM158.06 93.6292H154.834V91.7184H158.06V93.6292ZM158.06 101.273H154.834V99.3617H158.06V101.273ZM158.06 108.916H154.834V107.005H158.06V108.916ZM158.06 116.559H154.834V114.648H158.06V116.559ZM158.06 124.202H154.834V122.291H158.06V124.202ZM158.06 131.845H154.834V129.935H158.06V131.845ZM158.06 139.489H154.834V137.578H158.06V139.489ZM158.06 147.131H154.834V145.221H158.06V147.131ZM158.06 154.775H154.834V152.864H158.06V154.775ZM158.06 162.418H154.834V160.507H158.06V162.418ZM158.06 170.062H154.834V168.151H158.06V170.062ZM158.06 177.705H154.834V175.794H158.06V177.705ZM158.06 185.348H154.834V183.437H158.06V185.348ZM158.06 192.991H154.834V191.084H158.06V192.991ZM158.06 200.634H154.834V198.723H158.06V200.634ZM158.06 208.278H154.834V206.367H158.06V208.278ZM158.06 215.92H154.834V214.01H158.06V215.92ZM158.06 223.564H154.834V221.653H158.06V223.564ZM158.06 231.207H154.834V229.296H158.06V231.207ZM158.06 238.85H154.834V236.94H158.06V238.85ZM158.06 246.494H154.834V244.583H158.06V246.494ZM158.06 254.137H154.834V252.226H158.06V254.137ZM158.06 261.78H154.834V259.869H158.06V261.78ZM158.06 269.423H154.834V267.512H158.06V269.423ZM158.06 277.067H154.834V275.156H158.06V277.067ZM158.06 284.709H154.834V282.798H158.06V284.709ZM158.06 292.353H154.834V290.442H158.06V292.353ZM158.06 300H154.834V298.089H158.06V300ZM145.156 1.91085H141.94V9.53674e-06H145.165L145.156 1.91085ZM145.156 9.55356H141.94V7.64272H145.165L145.156 9.55356ZM145.156 17.1969H141.94V15.2861H145.165L145.156 17.1969ZM145.156 24.8403H141.94V22.9294H145.165L145.156 24.8403ZM145.156 32.4836H141.94V30.5728H145.165L145.156 32.4836ZM145.156 40.127H141.94V38.2162H145.165L145.156 40.127ZM145.156 47.7697H141.94V45.8628H145.165L145.156 47.7697ZM145.156 55.4131H141.94V53.5022H145.165L145.156 55.4131ZM145.156 63.0564H141.94V61.1456H145.165L145.156 63.0564ZM145.156 70.6998H141.94V68.7889H145.165L145.156 70.6998ZM145.156 78.3425H141.94L141.94 76.4317H145.165L145.156 78.3425ZM145.156 85.9858H141.94V84.075H145.165L145.156 85.9858ZM145.156 93.6292H141.94V91.7184H145.165L145.156 93.6292ZM145.156 101.273H141.94V99.3617H145.165L145.156 101.273ZM145.156 108.916H141.94V107.005H145.165L145.156 108.916ZM145.156 116.559H141.94V114.648H145.165L145.156 116.559ZM145.156 124.202H141.94V122.291H145.165L145.156 124.202ZM145.156 131.845H141.94V129.935H145.165L145.156 131.845ZM145.156 139.489H141.94V137.578H145.165L145.156 139.489ZM145.156 147.131H141.94V145.221H145.165L145.156 147.131ZM145.156 154.775H141.94V152.864H145.165L145.156 154.775ZM145.156 162.418H141.94V160.507H145.165L145.156 162.418ZM145.156 170.062H141.94V168.151H145.165L145.156 170.062ZM145.156 177.705H141.94V175.794H145.165L145.156 177.705ZM145.156 185.348H141.94V183.437H145.165L145.156 185.348ZM145.156 192.991H141.94V191.084H145.165L145.156 192.991ZM145.156 200.634H141.94V198.723H145.165L145.156 200.634ZM145.156 208.278H141.94V206.367H145.165L145.156 208.278ZM145.156 215.92H141.94V214.01H145.165L145.156 215.92ZM145.156 223.564H141.94V221.653H145.165L145.156 223.564ZM145.156 231.207H141.94V229.296H145.165L145.156 231.207ZM145.156 238.85H141.94V236.94H145.165L145.156 238.85ZM145.156 246.494H141.94V244.583H145.165L145.156 246.494ZM145.156 254.137H141.94V252.226H145.165L145.156 254.137ZM145.156 261.78H141.94V259.869H145.165L145.156 261.78ZM145.156 269.423H141.94V267.512H145.165L145.156 269.423ZM145.156 277.067H141.94V275.156H145.165L145.156 277.067ZM145.156 284.709H141.94V282.798H145.165L145.156 284.709ZM145.156 292.353H141.94V290.442H145.165L145.156 292.353ZM145.161 300H141.94V298.089H145.165L145.161 300ZM132.257 1.91085H129.032V9.53674e-06H132.257V1.91085ZM132.257 9.55356H129.032V7.64272H132.257V9.55356ZM132.257 17.1969H129.032V15.2861H132.257V17.1969ZM132.257 24.8403H129.032V22.9294H132.257V24.8403ZM132.257 32.4836H129.032V30.5728H132.257V32.4836ZM132.257 40.127H129.032V38.2162H132.257V40.127ZM132.257 47.7697H129.032V45.8628H132.257V47.7697ZM132.257 55.4131H129.032V53.5022H132.257V55.4131ZM132.257 63.0564H129.032V61.1456H132.257V63.0564ZM132.257 70.6998H129.032V68.7889H132.257V70.6998ZM132.257 78.3425H129.032L129.032 76.4317H132.257L132.257 78.3425ZM132.257 85.9858H129.032V84.075H132.257V85.9858ZM132.257 93.6292H129.032V91.7184H132.257V93.6292ZM132.257 101.273H129.032V99.3617H132.257V101.273ZM132.257 108.916H129.032V107.005H132.257V108.916ZM132.257 116.559H129.032V114.648H132.257V116.559ZM132.257 124.202H129.032V122.291H132.257V124.202ZM132.257 131.845H129.032V129.935H132.257V131.845ZM132.257 139.489H129.032V137.578H132.257V139.489ZM132.257 147.131H129.032V145.221H132.257V147.131ZM132.257 154.775H129.032V152.864H132.257V154.775ZM132.257 162.418H129.032V160.507H132.257V162.418ZM132.257 170.062H129.032V168.151H132.257V170.062ZM132.257 177.705H129.032V175.794H132.257V177.705ZM132.257 185.348H129.032V183.437H132.257V185.348ZM132.257 192.991H129.032V191.084H132.257V192.991ZM132.257 200.634H129.032V198.723H132.257V200.634ZM132.257 208.278H129.032V206.367H132.257V208.278ZM132.257 215.92H129.032V214.01H132.257V215.92ZM132.257 223.564H129.032V221.653H132.257V223.564ZM132.257 231.207H129.032V229.296H132.257V231.207ZM132.257 238.85H129.032V236.94H132.257V238.85ZM132.257 246.494H129.032V244.583H132.257V246.494ZM132.257 254.137H129.032V252.226H132.257V254.137ZM132.257 261.78H129.032V259.869H132.257V261.78ZM132.257 269.423H129.032V267.512H132.257V269.423ZM132.257 277.067H129.032V275.156H132.257V277.067ZM132.257 284.709H129.032V282.798H132.257V284.709ZM132.257 292.353H129.032V290.442H132.257V292.353ZM132.257 300H129.032V298.089H132.257V300ZM119.354 1.91085H116.129V9.53674e-06H119.354V1.91085ZM119.354 9.55356H116.129L116.129 7.64272H119.354L119.354 9.55356ZM119.354 17.1969H116.129V15.2861H119.354V17.1969ZM119.354 24.8403H116.129V22.9294H119.354V24.8403ZM119.354 32.4836H116.129V30.5728H119.354V32.4836ZM119.354 40.127H116.129V38.2162H119.354V40.127ZM119.354 47.7697H116.129V45.8628H119.354V47.7697ZM119.354 55.4131H116.129L116.129 53.5022H119.354L119.354 55.4131ZM119.354 63.0564H116.129V61.1456H119.354V63.0564ZM119.354 70.6998H116.129V68.7889H119.354V70.6998ZM119.354 78.3425H116.129V76.4317H119.354V78.3425ZM119.354 85.9858H116.129V84.075H119.354V85.9858ZM119.354 93.6292H116.129V91.7184H119.354V93.6292ZM119.354 101.273H116.129V99.3617H119.354V101.273ZM119.354 108.916H116.129V107.005H119.354V108.916ZM119.354 116.559H116.129V114.648H119.354V116.559ZM119.354 124.202H116.129V122.291H119.354V124.202ZM119.354 131.845H116.129V129.935H119.354V131.845ZM119.354 139.489H116.129V137.578H119.354V139.489ZM119.354 147.131H116.129V145.221H119.354V147.131ZM119.354 154.775H116.129V152.864H119.354V154.775ZM119.354 162.418H116.129V160.507H119.354V162.418ZM119.354 170.062H116.129V168.151H119.354V170.062ZM119.354 177.705H116.129V175.794H119.354V177.705ZM119.354 185.348H116.129V183.437H119.354V185.348ZM119.354 192.991H116.129V191.084H119.354V192.991ZM119.354 200.634H116.129V198.723H119.354V200.634ZM119.354 208.278H116.129V206.367H119.354V208.278ZM119.354 215.92H116.129V214.01H119.354V215.92ZM119.354 223.564H116.129V221.653H119.354V223.564ZM119.354 231.207H116.129V229.296H119.354V231.207ZM119.354 238.85H116.129V236.94H119.354V238.85ZM119.354 246.494H116.129V244.583H119.354V246.494ZM119.354 254.137H116.129V252.226H119.354V254.137ZM119.354 261.78H116.129V259.869H119.354V261.78ZM119.354 269.423H116.129V267.512H119.354V269.423ZM119.354 277.067H116.129V275.156H119.354V277.067ZM119.354 284.709H116.129V282.798H119.354V284.709ZM119.354 292.353H116.129V290.442H119.354V292.353ZM119.354 300H116.129V298.089H119.354V300ZM106.455 1.91085H103.226V9.53674e-06H106.455V1.91085ZM106.455 9.55356H103.226L103.226 7.64272H106.455L106.455 9.55356ZM106.455 17.1969H103.226V15.2861H106.455V17.1969ZM106.455 24.8403H103.226V22.9294H106.455V24.8403ZM106.455 32.4836H103.226V30.5728H106.455V32.4836ZM106.455 40.127H103.226V38.2162H106.455V40.127ZM106.455 47.7697H103.226V45.8628H106.455V47.7697ZM106.455 55.4131H103.226L103.226 53.5022H106.455L106.455 55.4131ZM106.455 63.0564H103.226V61.1456H106.455V63.0564ZM106.455 70.6998H103.226V68.7889H106.455V70.6998ZM106.455 78.3425H103.226V76.4317H106.455V78.3425ZM106.455 85.9858H103.226V84.075H106.455V85.9858ZM106.455 93.6292H103.226V91.7184H106.455V93.6292ZM106.455 101.273H103.226V99.3617H106.455V101.273ZM106.455 108.916H103.226V107.005H106.455V108.916ZM106.455 116.559H103.226V114.648H106.455V116.559ZM106.455 124.202H103.226V122.291H106.455V124.202ZM106.455 131.845H103.226V129.935H106.455V131.845ZM106.455 139.489H103.226V137.578H106.455V139.489ZM106.455 147.131H103.226V145.221H106.455V147.131ZM106.455 154.775H103.226V152.864H106.455V154.775ZM106.455 162.418H103.226V160.507H106.455V162.418ZM106.455 170.062H103.226V168.151H106.455V170.062ZM106.455 177.705H103.226V175.794H106.455V177.705ZM106.455 185.348H103.226V183.437H106.455V185.348ZM106.455 192.991H103.226V191.084H106.455V192.991ZM106.455 200.634H103.226V198.723H106.455V200.634ZM106.455 208.278H103.226V206.367H106.455V208.278ZM106.455 215.92H103.226V214.01H106.455V215.92ZM106.455 223.564H103.226V221.653H106.455V223.564ZM106.455 231.207H103.226V229.296H106.455V231.207ZM106.455 238.85H103.226V236.94H106.455V238.85ZM106.455 246.494H103.226V244.583H106.455V246.494ZM106.455 254.137H103.226V252.226H106.455V254.137ZM106.455 261.781H103.226V259.87H106.455V261.781ZM106.455 269.424H103.226V267.513H106.455V269.424ZM106.455 277.067H103.226V275.156H106.455V277.067ZM106.455 284.71H103.226V282.799H106.455V284.71ZM106.455 292.353H103.226V290.442H106.455V292.353ZM106.455 300H103.226V298.089H106.455V300ZM93.5485 1.91085H90.3224V9.53674e-06H93.5485V1.91085ZM93.5485 9.55356H90.3224L90.3224 7.64272H93.5485L93.5485 9.55356ZM93.5485 17.1969H90.3224V15.2861H93.5485V17.1969ZM93.5485 24.8403H90.3224V22.9294H93.5485V24.8403ZM93.5485 32.4836H90.3224V30.5728H93.5485V32.4836ZM93.5485 40.127H90.3224V38.2162H93.5485V40.127ZM93.5485 47.7697H90.3224V45.8628H93.5485V47.7697ZM93.5485 55.4131H90.3224L90.3224 53.5022H93.5485L93.5485 55.4131ZM93.5485 63.0564H90.3224V61.1456H93.5485V63.0564ZM93.5485 70.6998H90.3224V68.7889H93.5485V70.6998ZM93.5485 78.3425H90.3224V76.4317H93.5485V78.3425ZM93.5485 85.9858H90.3224V84.075H93.5485V85.9858ZM93.5485 93.6292H90.3224V91.7184H93.5485V93.6292ZM93.5485 101.273H90.3224V99.3617H93.5485V101.273ZM93.5485 108.916H90.3224V107.005H93.5485V108.916ZM93.5485 116.559H90.3224V114.648H93.5485V116.559ZM93.5485 124.202H90.3224V122.291H93.5485V124.202ZM93.5485 131.845H90.3224V129.935H93.5485V131.845ZM93.5485 139.489H90.3224V137.578H93.5485V139.489ZM93.5485 147.131H90.3224V145.221H93.5485V147.131ZM93.5485 154.775H90.3224V152.864H93.5485V154.775ZM93.5485 162.418H90.3224V160.507H93.5485V162.418ZM93.5485 170.062H90.3224V168.151H93.5485V170.062ZM93.5485 177.705H90.3224V175.794H93.5485V177.705ZM93.5485 185.348H90.3224V183.437H93.5485V185.348ZM93.5485 192.991H90.3224V191.084H93.5485V192.991ZM93.5485 200.634H90.3224V198.723H93.5485V200.634ZM93.5485 208.278H90.3224V206.367H93.5485V208.278ZM93.5485 215.92H90.3224V214.01H93.5485V215.92ZM93.5485 223.564H90.3224V221.653H93.5485V223.564ZM93.5485 231.207H90.3224V229.296H93.5485V231.207ZM93.5485 238.85H90.3224V236.94H93.5485V238.85ZM93.5485 246.494H90.3224V244.583H93.5485V246.494ZM93.5485 254.137H90.3224V252.226H93.5485V254.137ZM93.5485 261.78H90.3224V259.869H93.5485V261.78ZM93.5485 269.423H90.3224V267.512H93.5485V269.423ZM93.5485 277.067H90.3224V275.156H93.5485V277.067ZM93.5485 284.709H90.3224V282.798H93.5485V284.709ZM93.5485 292.353H90.3224V290.442H93.5485V292.353ZM93.5485 300H90.3224V298.089H93.5485V300ZM80.6451 1.91085H77.419V9.53674e-06H80.644L80.6451 1.91085ZM80.6451 9.55356H77.419L77.419 7.64272H80.644L80.6451 9.55356ZM80.6451 17.1969H77.419V15.2861H80.644L80.6451 17.1969ZM80.6451 24.8403H77.419V22.9294H80.644L80.6451 24.8403ZM80.6451 32.4836H77.419V30.5728H80.644L80.6451 32.4836ZM80.6451 40.127H77.419V38.2162H80.644L80.6451 40.127ZM80.6451 47.7697H77.419V45.8628H80.644L80.6451 47.7697ZM80.6451 55.4131H77.419L77.419 53.5022H80.644L80.6451 55.4131ZM80.6451 63.0564H77.419V61.1456H80.644L80.6451 63.0564ZM80.6451 70.6998H77.419V68.7889H80.644L80.6451 70.6998ZM80.6451 78.3425H77.419V76.4317H80.644L80.6451 78.3425ZM80.6451 85.9858H77.419V84.075H80.644L80.6451 85.9858ZM80.6451 93.6292H77.419V91.7184H80.644L80.6451 93.6292ZM80.6451 101.273H77.419V99.3617H80.644L80.6451 101.273ZM80.6451 108.916H77.419V107.005H80.644L80.6451 108.916ZM80.6451 116.559H77.419V114.648H80.644L80.6451 116.559ZM80.6451 124.202H77.419V122.291H80.644L80.6451 124.202ZM80.6451 131.845H77.419V129.935H80.644L80.6451 131.845ZM80.6451 139.489H77.419V137.578H80.644L80.6451 139.489ZM80.6451 147.131H77.419V145.221H80.644L80.6451 147.131ZM80.6451 154.775H77.419V152.864H80.644L80.6451 154.775ZM80.6451 162.418H77.419V160.507H80.644L80.6451 162.418ZM80.6451 170.062H77.419V168.151H80.644L80.6451 170.062ZM80.6451 177.705H77.419V175.794H80.644L80.6451 177.705ZM80.6451 185.348H77.419V183.437H80.644L80.6451 185.348ZM80.6451 192.991H77.419V191.084H80.644L80.6451 192.991ZM80.6451 200.634H77.419V198.723H80.644L80.6451 200.634ZM80.6451 208.278H77.419V206.367H80.644L80.6451 208.278ZM80.6451 215.92H77.419V214.01H80.644L80.6451 215.92ZM80.6451 223.564H77.419V221.653H80.644L80.6451 223.564ZM80.6451 231.207H77.419V229.296H80.644L80.6451 231.207ZM80.6451 238.85H77.419V236.94H80.644L80.6451 238.85ZM80.6451 246.494H77.419V244.583H80.644L80.6451 246.494ZM80.6451 254.137H77.419V252.226H80.644L80.6451 254.137ZM80.6451 261.78H77.419V259.869H80.644L80.6451 261.78ZM80.6451 269.423H77.419V267.512H80.644L80.6451 269.423ZM80.6451 277.067H77.419V275.156H80.644L80.6451 277.067ZM80.6451 284.709H77.419V282.798H80.644L80.6451 284.709ZM80.6451 292.353H77.419V290.442H80.644L80.6451 292.353ZM80.6451 300H77.419V298.089H80.644L80.6451 300ZM67.7418 1.91085H64.5157V9.53674e-06H67.7407L67.7418 1.91085ZM67.7418 9.55356H64.5157L64.5157 7.64272H67.7407L67.7418 9.55356ZM67.7418 17.1969H64.5157V15.2861H67.7407L67.7418 17.1969ZM67.7418 24.8403H64.5157V22.9294H67.7407L67.7418 24.8403ZM67.7418 32.4836H64.5157V30.5728H67.7407L67.7418 32.4836ZM67.7418 40.127H64.5157V38.2162H67.7407L67.7418 40.127ZM67.7418 47.7697H64.5157V45.8628H67.7407L67.7418 47.7697ZM67.7418 55.4131H64.5157L64.5157 53.5022H67.7407L67.7418 55.4131ZM67.7418 63.0564H64.5157V61.1456H67.7407L67.7418 63.0564ZM67.7418 70.6998H64.5157V68.7889H67.7407L67.7418 70.6998ZM67.7418 78.3425H64.5157V76.4317H67.7407L67.7418 78.3425ZM67.7418 85.9858H64.5157V84.075H67.7407L67.7418 85.9858ZM67.7418 93.6292H64.5157V91.7184H67.7407L67.7418 93.6292ZM67.7418 101.273H64.5157V99.3617H67.7407L67.7418 101.273ZM67.7418 108.916H64.5157V107.005H67.7407L67.7418 108.916ZM67.7418 116.559H64.5157V114.648H67.7407L67.7418 116.559ZM67.7418 124.202H64.5157V122.291H67.7407L67.7418 124.202ZM67.7418 131.845H64.5157V129.935H67.7407L67.7418 131.845ZM67.7418 139.489H64.5157V137.578H67.7407L67.7418 139.489ZM67.7418 147.131H64.5157V145.221H67.7407L67.7418 147.131ZM67.7418 154.775H64.5157V152.864H67.7407L67.7418 154.775ZM67.7418 162.418H64.5157V160.507H67.7407L67.7418 162.418ZM67.7418 170.062H64.5157V168.151H67.7407L67.7418 170.062ZM67.7418 177.705H64.5157V175.794H67.7407L67.7418 177.705ZM67.7418 185.348H64.5157V183.437H67.7407L67.7418 185.348ZM67.7418 192.991H64.5157V191.084H67.7407L67.7418 192.991ZM67.7418 200.634H64.5157V198.723H67.7407L67.7418 200.634ZM67.7418 208.278H64.5157V206.367H67.7407L67.7418 208.278ZM67.7418 215.92H64.5157V214.01H67.7407L67.7418 215.92ZM67.7418 223.564H64.5157V221.653H67.7407L67.7418 223.564ZM67.7418 231.207H64.5157V229.296H67.7407L67.7418 231.207ZM67.7418 238.85H64.5157V236.94H67.7407L67.7418 238.85ZM67.7418 246.494H64.5157V244.583H67.7407L67.7418 246.494ZM67.7418 254.137H64.5157V252.226H67.7407L67.7418 254.137ZM67.7418 261.78H64.5157V259.869H67.7407L67.7418 261.78ZM67.7418 269.423H64.5157V267.512H67.7407L67.7418 269.423ZM67.7418 277.067H64.5157V275.156H67.7407L67.7418 277.067ZM67.7418 284.709H64.5157V282.798H67.7407L67.7418 284.709ZM67.7418 292.353H64.5157V290.442H67.7407L67.7418 292.353ZM67.7418 300H64.5157V298.089H67.7407L67.7418 300ZM54.8396 1.91085H51.6123V9.53674e-06H54.8396V1.91085ZM54.8396 9.55356H51.6123V7.64272H54.8396V9.55356ZM54.8396 17.1969H51.6123V15.2861H54.8396V17.1969ZM54.8396 24.8403H51.6123V22.9294H54.8396V24.8403ZM54.8396 32.4836H51.6123V30.5728H54.8396V32.4836ZM54.8396 40.127H51.6123V38.2162H54.8396V40.127ZM54.8396 47.7697H51.6123V45.8628H54.8396V47.7697ZM54.8396 55.4131H51.6123V53.5022H54.8396V55.4131ZM54.8396 63.0564H51.6123V61.1456H54.8396V63.0564ZM54.8396 70.6998H51.6123V68.7889H54.8396V70.6998ZM54.8396 78.3425H51.6123V76.4317H54.8396V78.3425ZM54.8396 85.9858H51.6123V84.075H54.8396V85.9858ZM54.8396 93.6292H51.6123V91.7184H54.8396V93.6292ZM54.8396 101.273H51.6123V99.3617H54.8396V101.273ZM54.8396 108.916H51.6123V107.005H54.8396V108.916ZM54.8396 116.559H51.6123V114.648H54.8396V116.559ZM54.8396 124.202H51.6123V122.291H54.8396V124.202ZM54.8396 131.845H51.6123V129.935H54.8396V131.845ZM54.8396 139.489H51.6123V137.578H54.8396V139.489ZM54.8396 147.131H51.6123V145.221H54.8396V147.131ZM54.8396 154.775H51.6123L51.6123 152.864H54.8396L54.8396 154.775ZM54.8396 162.418H51.6123V160.507H54.8396V162.418ZM54.8396 170.062H51.6123V168.151H54.8396V170.062ZM54.8396 177.705H51.6123L51.6123 175.794H54.8396L54.8396 177.705ZM54.8396 185.348H51.6123V183.437H54.8396V185.348ZM54.8396 192.991H51.6123V191.084H54.8396V192.991ZM54.8396 200.634H51.6123L51.6123 198.723H54.8396L54.8396 200.634ZM54.8396 208.278H51.6123V206.367H54.8396V208.278ZM54.8396 215.92H51.6123V214.01H54.8396V215.92ZM54.8396 223.564H51.6123L51.6123 221.653H54.8396L54.8396 223.564ZM54.8396 231.207H51.6123V229.296H54.8396V231.207ZM54.8396 238.85H51.6123V236.94H54.8396V238.85ZM54.8396 246.494H51.6123V244.583H54.8396V246.494ZM54.8396 254.137H51.6123V252.226H54.8396V254.137ZM54.8396 261.78H51.6123V259.869H54.8396V261.78ZM54.8396 269.423H51.6123V267.512H54.8396V269.423ZM54.8396 277.067H51.6123V275.156H54.8396V277.067ZM54.8396 284.709H51.6123V282.798H54.8396V284.709ZM54.8396 292.353H51.6123V290.442H54.8396V292.353ZM54.8396 300H51.6123V298.089H54.8396V300ZM41.9362 1.91085H38.709V9.53674e-06H41.9351L41.9362 1.91085ZM41.9362 9.55356H38.709V7.64272H41.9351L41.9362 9.55356ZM41.9362 17.1969H38.709V15.2861H41.9351L41.9362 17.1969ZM41.9362 24.8403H38.709V22.9294H41.9351L41.9362 24.8403ZM41.9362 32.4836H38.709V30.5728H41.9351L41.9362 32.4836ZM41.9362 40.127H38.709V38.2162H41.9351L41.9362 40.127ZM41.9362 47.7697H38.709V45.8628H41.9351L41.9362 47.7697ZM41.9362 55.4131H38.709V53.5022H41.9351L41.9362 55.4131ZM41.9362 63.0564H38.709V61.1456H41.9351L41.9362 63.0564ZM41.9362 70.6998H38.709V68.7889H41.9351L41.9362 70.6998ZM41.9362 78.3425H38.709V76.4317H41.9351L41.9362 78.3425ZM41.9362 85.9858H38.709V84.075H41.9351L41.9362 85.9858ZM41.9362 93.6292H38.709V91.7184H41.9351L41.9362 93.6292ZM41.9362 101.273H38.709V99.3617H41.9351L41.9362 101.273ZM41.9362 108.916H38.709V107.005H41.9351L41.9362 108.916ZM41.9362 116.559H38.709V114.648H41.9351L41.9362 116.559ZM41.9362 124.202H38.709V122.291H41.9351L41.9362 124.202ZM41.9362 131.845H38.709V129.935H41.9351L41.9362 131.845ZM41.9362 139.489H38.709V137.578H41.9351L41.9362 139.489ZM41.9362 147.131H38.709V145.221H41.9351L41.9362 147.131ZM41.9362 154.775H38.709L38.709 152.864H41.9351L41.9362 154.775ZM41.9362 162.418H38.709V160.507H41.9351L41.9362 162.418ZM41.9362 170.062H38.709V168.151H41.9351L41.9362 170.062ZM41.9362 177.705H38.709L38.709 175.794H41.9351L41.9362 177.705ZM41.9362 185.348H38.709V183.437H41.9351L41.9362 185.348ZM41.9362 192.991H38.709V191.084H41.9351L41.9362 192.991ZM41.9362 200.634H38.709L38.709 198.723H41.9351L41.9362 200.634ZM41.9362 208.278H38.709V206.367H41.9351L41.9362 208.278ZM41.9362 215.92H38.709V214.01H41.9351L41.9362 215.92ZM41.9362 223.564H38.709L38.709 221.653H41.9351L41.9362 223.564ZM41.9362 231.207H38.709V229.296H41.9351L41.9362 231.207ZM41.9362 238.85H38.709V236.94H41.9351L41.9362 238.85ZM41.9362 246.494H38.709V244.583H41.9351L41.9362 246.494ZM41.9362 254.137H38.709V252.226H41.9351L41.9362 254.137ZM41.9362 261.78H38.709V259.869H41.9351L41.9362 261.78ZM41.9362 269.423H38.709V267.512H41.9351L41.9362 269.423ZM41.9362 277.067H38.709V275.156H41.9351L41.9362 277.067ZM41.9362 284.709H38.709V282.798H41.9351L41.9362 284.709ZM41.9362 292.353H38.709V290.442H41.9351L41.9362 292.353ZM41.9362 300H38.709V298.089H41.9351L41.9362 300ZM29.0317 1.91085H25.8067V9.53674e-06H29.0317V1.91085ZM29.0317 9.55356H25.8067V7.64272H29.0317V9.55356ZM29.0317 17.1969H25.8067V15.2861H29.0317V17.1969ZM29.0317 24.8403H25.8067V22.9294H29.0317V24.8403ZM29.0317 32.4836H25.8067V30.5728H29.0317V32.4836ZM29.0317 40.127H25.8067V38.2162H29.0317V40.127ZM29.0317 47.7697H25.8067V45.8628H29.0317V47.7697ZM29.0317 55.4131H25.8067V53.5022H29.0317V55.4131ZM29.0317 63.0564H25.8067V61.1456H29.0317V63.0564ZM29.0317 70.6998H25.8067V68.7889H29.0317V70.6998ZM29.0317 78.3425H25.8067V76.4317H29.0317V78.3425ZM29.0317 85.9858H25.8067V84.075H29.0317V85.9858ZM29.0317 93.6292H25.8067L25.8067 91.7184H29.0317L29.0317 93.6292ZM29.0317 101.273H25.8067V99.3617H29.0317V101.273ZM29.0317 108.916H25.8067V107.005H29.0317V108.916ZM29.0317 116.559H25.8067L25.8067 114.648H29.0317L29.0317 116.559ZM29.0317 124.202H25.8067V122.291H29.0317V124.202ZM29.0317 131.845H25.8067V129.935H29.0317V131.845ZM29.0317 139.489H25.8067L25.8067 137.578H29.0317L29.0317 139.489ZM29.0317 147.131H25.8067V145.221H29.0317V147.131ZM29.0317 154.775H25.8067V152.864H29.0317V154.775ZM29.0317 162.418H25.8067V160.507H29.0317V162.418ZM29.0317 170.062H25.8067V168.151H29.0317V170.062ZM29.0317 177.705H25.8067V175.794H29.0317V177.705ZM29.0317 185.348H25.8067V183.437H29.0317V185.348ZM29.0317 192.991H25.8067V191.084H29.0317V192.991ZM29.0317 200.634H25.8067V198.723H29.0317V200.634ZM29.0317 208.278H25.8067V206.367H29.0317V208.278ZM29.0317 215.92H25.8067V214.01H29.0317V215.92ZM29.0317 223.564H25.8067V221.653H29.0317V223.564ZM29.0317 231.207H25.8067V229.296H29.0317V231.207ZM29.0317 238.85H25.8067L25.8067 236.94H29.0317L29.0317 238.85ZM29.0317 246.494H25.8067V244.583H29.0317V246.494ZM29.0317 254.137H25.8067V252.226H29.0317V254.137ZM29.0317 261.78H25.8067L25.8067 259.869H29.0317L29.0317 261.78ZM29.0317 269.423H25.8067V267.512H29.0317V269.423ZM29.0317 277.067H25.8067V275.156H29.0317V277.067ZM29.0317 284.709H25.8067L25.8067 282.798H29.0317L29.0317 284.709ZM29.0317 292.353H25.8067V290.442H29.0317V292.353ZM29.0317 300H25.8067V298.089H29.0317V300ZM16.1284 1.91085H12.9034L12.9034 9.53674e-06H16.1284V1.91085ZM16.1284 9.55356H12.9034V7.64272H16.1284V9.55356ZM16.1284 17.1969H12.9034V15.2861H16.1284V17.1969ZM16.1284 24.8403H12.9034L12.9034 22.9294H16.1284V24.8403ZM16.1284 32.4836H12.9034V30.5728H16.1284V32.4836ZM16.1284 40.127H12.9034V38.2162H16.1284V40.127ZM16.1284 47.7697H12.9034V45.8628H16.1284V47.7697ZM16.1284 55.4131H12.9034V53.5022H16.1284V55.4131ZM16.1284 63.0564H12.9034L12.9034 61.1456H16.1284V63.0564ZM16.1284 70.6998H12.9034V68.7889H16.1284V70.6998ZM16.1284 78.3425H12.9034V76.4317H16.1284V78.3425ZM16.1284 85.9858H12.9034L12.9034 84.075H16.1284V85.9858ZM16.1284 93.6292H12.9034V91.7184H16.1284L16.1284 93.6292ZM16.1284 101.273H12.9034V99.3617H16.1284V101.273ZM16.1284 108.916H12.9034L12.9034 107.005H16.1284V108.916ZM16.1284 116.559H12.9034V114.648H16.1284L16.1284 116.559ZM16.1284 124.202H12.9034L12.9034 122.291H16.1284V124.202ZM16.1284 131.845H12.9034V129.935H16.1284V131.845ZM16.1284 139.489H12.9034V137.578H16.1284L16.1284 139.489ZM16.1284 147.131H12.9034L12.9034 145.221H16.1284V147.131ZM16.1284 154.775H12.9034V152.864H16.1284V154.775ZM16.1284 162.418H12.9034V160.507H16.1284V162.418ZM16.1284 170.062H12.9034L12.9034 168.151H16.1284V170.062ZM16.1284 177.705H12.9034V175.794H16.1284V177.705ZM16.1284 185.348H12.9034V183.437H16.1284V185.348ZM16.1284 192.991H12.9034V191.084H16.1284V192.991ZM16.1284 200.634H12.9034V198.723H16.1284V200.634ZM16.1284 208.278H12.9034L12.9034 206.367H16.1284V208.278ZM16.1284 215.92H12.9034V214.01H16.1284V215.92ZM16.1284 223.564H12.9034V221.653H16.1284V223.564ZM16.1284 231.207H12.9034L12.9034 229.296H16.1284V231.207ZM16.1284 238.85H12.9034V236.94H16.1284L16.1284 238.85ZM16.1284 246.494H12.9034V244.583H16.1284V246.494ZM16.1284 254.137H12.9034L12.9034 252.226H16.1284V254.137ZM16.1284 261.78H12.9034V259.869H16.1284L16.1284 261.78ZM16.1284 269.423H12.9034L12.9034 267.512H16.1284V269.423ZM16.1284 277.067H12.9034V275.156H16.1284V277.067ZM16.1284 284.709H12.9034V282.798H16.1284L16.1284 284.709ZM16.1284 292.353H12.9034L12.9034 290.442H16.1284V292.353ZM16.1284 300H12.9034V298.089H16.1284V300ZM3.225 1.91085H0L0 9.53674e-06H3.225L3.225 1.91085ZM3.225 9.55356H0L0 7.64272H3.225L3.225 9.55356ZM3.225 17.1969H0L0 15.2861H3.225L3.225 17.1969ZM3.225 24.8403H0L0 22.9294H3.225L3.225 24.8403ZM3.225 32.4836H0L0 30.5728H3.225L3.225 32.4836ZM3.225 40.127H0L0 38.2162H3.225L3.225 40.127ZM3.225 47.7697H0L0 45.8628H3.225L3.225 47.7697ZM3.225 55.4131H0L0 53.5022H3.225L3.225 55.4131ZM3.225 63.0564H0L0 61.1456H3.225L3.225 63.0564ZM3.225 70.6998H0L0 68.7889H3.225L3.225 70.6998ZM3.225 78.3425H0L0 76.4317H3.225L3.225 78.3425ZM3.225 85.9858H0L0 84.075H3.225L3.225 85.9858ZM3.225 93.6292H0L0 91.7184H3.225L3.225 93.6292ZM3.225 101.273H0L0 99.3617H3.225L3.225 101.273ZM3.225 108.916H0L0 107.005H3.225L3.225 108.916ZM3.225 116.559H0L0 114.648H3.225L3.225 116.559ZM3.225 124.202H0L0 122.291H3.225L3.225 124.202ZM3.225 131.845H0L0 129.935H3.225L3.225 131.845ZM3.225 139.489H0L0 137.578H3.225L3.225 139.489ZM3.225 147.131H0L0 145.221H3.225L3.225 147.131ZM3.225 154.775H0L0 152.864H3.225L3.225 154.775ZM3.225 162.418H0L0 160.507H3.225L3.225 162.418ZM3.225 170.062H0L0 168.151H3.225L3.225 170.062ZM3.225 177.705H0L0 175.794H3.225L3.225 177.705ZM3.225 185.348H0L0 183.437H3.225L3.225 185.348ZM3.225 192.991H0L0 191.084H3.225L3.225 192.991ZM3.225 200.634H0L0 198.723H3.225L3.225 200.634ZM3.225 208.278H0L0 206.367H3.225L3.225 208.278ZM3.225 215.92H0L0 214.01H3.225L3.225 215.92ZM3.225 223.564H0L0 221.653H3.225L3.225 223.564ZM3.225 231.207H0L0 229.296H3.225L3.225 231.207ZM3.225 238.85H0L0 236.94H3.225L3.225 238.85ZM3.225 246.494H0L0 244.583H3.225L3.225 246.494ZM3.225 254.137H0L0 252.226H3.225L3.225 254.137ZM3.225 261.78H0L0 259.869H3.225L3.225 261.78ZM3.225 269.423H0L0 267.512H3.225L3.225 269.423ZM3.225 277.067H0L0 275.156H3.225L3.225 277.067ZM3.225 284.709H0L0 282.798H3.225L3.225 284.709ZM3.225 292.353H0L0 290.442H3.225L3.225 292.353ZM3.225 300H0L0 298.089H3.225L3.225 300Z" fill="#FCD95E"/>
</g>
</g>
</g>
<defs>
<clipPath id="clip0">
<rect width="300" height="300" fill="white"/>
</clipPath>
</defs>
</svg>
