<svg width="800" height="800" viewBox="0 0 800 800" fill="none" xmlns="http://www.w3.org/2000/svg">
<g clip-path="url(#clip0)">
<g style="mix-blend-mode:screen">
<g style="mix-blend-mode:screen">
<path d="M800 5.09556H791.4V-1.04904e-05H800V5.09556ZM800 25.4761H791.4V20.3805H800V25.4761ZM800 45.8584H791.4V40.7628H800V45.8584ZM800 66.2407H791.4V61.1451H800V66.2407ZM800 86.623H791.4V81.5274H800V86.623ZM800 107.005H791.4V101.91H800V107.005ZM800 127.386H791.4V122.301H800V127.386ZM800 147.768H791.4V142.673H800V147.768ZM800 168.15H791.4V163.055H800V168.15ZM800 188.533H791.4V183.437H800V188.533ZM800 208.913H791.4V203.818H800V208.913ZM800 229.296H791.4V224.2H800V229.296ZM800 249.678H791.4V244.582H800V249.678ZM800 270.06H791.4V264.965H800V270.06ZM800 290.442H791.4V285.347H800V290.442ZM800 310.823H791.4V305.727H800V310.823ZM800 331.205H791.4V326.11H800V331.205ZM800 351.588H791.4V346.492H800V351.588ZM800 371.97H791.4V366.874H800V371.97ZM800 392.35H791.4V387.257H800V392.35ZM800 412.743H791.4V407.648H800V412.743ZM800 433.126H791.4V428.03H800V433.126ZM800 453.508H791.4V448.412H800V453.508ZM800 473.89H791.4V468.795H800V473.89ZM800 494.271H791.4V489.175H800V494.271ZM800 514.653H791.4V509.558H800V514.653ZM800 535.035H791.4V529.94H800V535.035ZM800 555.418H791.4V550.322H800V555.418ZM800 575.798H791.4V570.703H800V575.798ZM800 596.181H791.4V591.085H800V596.181ZM800 616.563H791.4V611.467H800V616.563ZM800 636.945H791.4V631.85H800V636.945ZM800 657.327H791.4V652.232H800V657.327ZM800 677.699H791.4V672.604H800V677.699ZM800 698.088H791.4V692.993H800V698.088ZM800 718.471H791.4V713.375H800V718.471ZM800 738.853H791.4V733.758H800V738.853ZM800 759.234H791.4V754.138H800V759.234ZM800 779.616H791.4V774.52H800V779.616ZM800 800H791.4V794.904H800V800ZM765.594 5.09556H756.991V-1.04904e-05H765.594V5.09556ZM765.594 25.4761H756.991V20.3805H765.594V25.4761ZM765.594 45.8584H756.991V40.7628H765.594V45.8584ZM765.594 66.2407H756.991V61.1451H765.594V66.2407ZM765.594 86.623H756.991V81.5274H765.594V86.623ZM765.594 107.005H756.991V101.91H765.594V107.005ZM765.594 127.386H756.991V122.301H765.594V127.386ZM765.594 147.768H756.991V142.673H765.594V147.768ZM765.594 168.15H756.991V163.055H765.594V168.15ZM765.594 188.533H756.991V183.437H765.594V188.533ZM765.594 208.913H756.991V203.818H765.594V208.913ZM765.594 229.296H756.991V224.2H765.594V229.296ZM765.594 249.678H756.991V244.582H765.594V249.678ZM765.594 270.06H756.991V264.965H765.594V270.06ZM765.594 290.442H756.991V285.347H765.594V290.442ZM765.594 310.823H756.991V305.727H765.594V310.823ZM765.594 331.205H756.991V326.11H765.594V331.205ZM765.594 351.588H756.991V346.492H765.594V351.588ZM765.594 371.97H756.991V366.874H765.594V371.97ZM765.594 392.35H756.991V387.257H765.594V392.35ZM765.594 412.733H756.991V407.637H765.594V412.733ZM765.594 433.115H756.991V428.019H765.594V433.115ZM765.594 453.497H756.991V448.402H765.594V453.497ZM765.594 473.88H756.991V468.784H765.594V473.88ZM765.594 494.26H756.991V489.165H765.594V494.26ZM765.594 514.642H756.991V509.558H765.594V514.642ZM765.594 535.025H756.991V529.929H765.594V535.025ZM765.594 555.407H756.991V550.311H765.594V555.407ZM765.594 575.788H756.991V570.692H765.594V575.788ZM765.594 596.17H756.991V591.074H765.594V596.17ZM765.594 616.552H756.991V611.457H765.594V616.552ZM765.594 636.935H756.991V631.839H765.594V636.935ZM765.594 657.317H756.991V652.221H765.594V657.317ZM765.594 677.697H756.991V672.602H765.594V677.697ZM765.594 698.08H756.991V692.984H765.594V698.08ZM765.594 718.462H756.991V713.366H765.594V718.462ZM765.594 738.844H756.991V733.749H765.594V738.844ZM765.594 759.225H756.991V754.129H765.594V759.225ZM765.594 779.607H756.991V774.512H765.594V779.607ZM765.591 800H756.988V794.904H765.591V800ZM731.182 5.09556H722.579V-1.04904e-05H731.182V5.09556ZM731.182 25.4761H722.579V20.3805H731.182V25.4761ZM731.182 45.8584H722.579V40.7628H731.182V45.8584ZM731.182 66.2407H722.579V61.1451H731.182V66.2407ZM731.182 86.623H722.579V81.5274H731.182V86.623ZM731.182 107.005H722.579V101.91H731.182V107.005ZM731.182 127.386H722.579V122.301H731.182V127.386ZM731.182 147.768H722.579V142.673H731.182V147.768ZM731.182 168.15H722.579V163.055H731.182V168.15ZM731.182 188.533H722.579V183.437H731.182V188.533ZM731.182 208.913H722.579V203.818H731.182V208.913ZM731.182 229.296H722.579V224.2H731.182V229.296ZM731.182 249.678H722.579V244.582H731.182V249.678ZM731.182 270.06H722.579V264.965H731.182V270.06ZM731.182 290.442H722.579V285.347H731.182V290.442ZM731.182 310.823H722.579V305.727H731.182V310.823ZM731.182 331.205H722.579V326.11H731.182V331.205ZM731.182 351.588H722.579V346.492H731.182V351.588ZM731.182 371.97H722.579V366.874H731.182V371.97ZM731.182 392.35H722.579V387.257H731.182V392.35ZM731.182 412.733H722.579V407.637H731.182V412.733ZM731.182 433.115H722.579V428.019H731.182V433.115ZM731.182 453.497H722.579V448.402H731.182V453.497ZM731.182 473.88H722.579V468.784H731.182V473.88ZM731.182 494.26H722.579V489.165H731.182V494.26ZM731.182 514.642H722.579V509.558H731.182V514.642ZM731.182 535.025H722.579V529.929H731.182V535.025ZM731.182 555.407H722.579V550.311H731.182V555.407ZM731.182 575.788H722.579V570.692H731.182V575.788ZM731.182 596.17H722.579V591.074H731.182V596.17ZM731.182 616.552H722.579V611.457H731.182V616.552ZM731.182 636.935H722.579V631.839H731.182V636.935ZM731.182 657.317H722.579V652.221H731.182V657.317ZM731.182 677.697H722.579V672.602H731.182V677.697ZM731.182 698.08H722.579V692.984H731.182V698.08ZM731.182 718.462H722.579V713.366H731.182V718.462ZM731.182 738.844H722.579V733.749H731.182V738.844ZM731.182 759.225H722.579V754.129H731.182V759.225ZM731.182 779.607H722.579V774.512H731.182V779.607ZM731.182 800H722.579V794.904H731.182V800ZM696.773 5.09556H688.173V-1.04904e-05H696.773V5.09556ZM696.773 25.4761H688.173V20.3805H696.773V25.4761ZM696.773 45.8584H688.173V40.7628H696.773V45.8584ZM696.773 66.2407H688.173V61.1451H696.773V66.2407ZM696.773 86.623H688.173V81.5274H696.773V86.623ZM696.773 107.005H688.173V101.91H696.773V107.005ZM696.773 127.386H688.173V122.301H696.773V127.386ZM696.773 147.768H688.173V142.673H696.773V147.768ZM696.773 168.15H688.173V163.055H696.773V168.15ZM696.773 188.533H688.173V183.437H696.773V188.533ZM696.773 208.913H688.173V203.818H696.773V208.913ZM696.773 229.296H688.173V224.2H696.773V229.296ZM696.773 249.678H688.173V244.582H696.773V249.678ZM696.773 270.06H688.173V264.965H696.773V270.06ZM696.773 290.442H688.173V285.347H696.773V290.442ZM696.773 310.823H688.173V305.727H696.773V310.823ZM696.773 331.205H688.173V326.11H696.773V331.205ZM696.773 351.588H688.173V346.492H696.773V351.588ZM696.773 371.97H688.173V366.874H696.773V371.97ZM696.773 392.35H688.173V387.257H696.773V392.35ZM696.773 412.733H688.173V407.637H696.773V412.733ZM696.773 433.115H688.173V428.019H696.773V433.115ZM696.773 453.497H688.173V448.402H696.773V453.497ZM696.773 473.88H688.173V468.784H696.773V473.88ZM696.773 494.26H688.173V489.165H696.773V494.26ZM696.773 514.642H688.173V509.558H696.773V514.642ZM696.773 535.025H688.173V529.929H696.773V535.025ZM696.773 555.407H688.173V550.311H696.773V555.407ZM696.773 575.788H688.173V570.692H696.773V575.788ZM696.773 596.17H688.173V591.074H696.773V596.17ZM696.773 616.552H688.173V611.457H696.773V616.552ZM696.773 636.935H688.173V631.839H696.773V636.935ZM696.773 657.317H688.173V652.221H696.773V657.317ZM696.773 677.697H688.173V672.602H696.773V677.697ZM696.773 698.08H688.173V692.984H696.773V698.08ZM696.773 718.462H688.173V713.366H696.773V718.462ZM696.773 738.844H688.173V733.749H696.773V738.844ZM696.773 759.225H688.173V754.129H696.773V759.225ZM696.773 779.607H688.173V774.512H696.773V779.607ZM696.773 800H688.173V794.904H696.773V800ZM662.364 5.09556H653.764V-1.04904e-05H662.364V5.09556ZM662.364 25.4761H653.764V20.3805H662.364V25.4761ZM662.364 45.8584H653.764V40.7628H662.364V45.8584ZM662.364 66.2407H653.764V61.1451H662.364V66.2407ZM662.364 86.623H653.764V81.5274H662.364V86.623ZM662.364 107.005H653.764V101.91H662.364V107.005ZM662.364 127.386H653.764V122.301H662.364V127.386ZM662.364 147.768H653.764V142.673H662.364V147.768ZM662.364 168.15H653.764V163.055H662.364V168.15ZM662.364 188.533H653.764V183.437H662.364V188.533ZM662.364 208.913H653.764V203.818H662.364V208.913ZM662.364 229.296H653.764V224.2H662.364V229.296ZM662.364 249.678H653.764V244.582H662.364V249.678ZM662.364 270.06H653.764V264.965H662.364V270.06ZM662.364 290.442H653.764V285.347H662.364V290.442ZM662.364 310.823H653.764V305.727H662.364V310.823ZM662.364 331.205H653.764V326.11H662.364V331.205ZM662.364 351.588H653.764V346.492H662.364V351.588ZM662.364 371.97H653.764V366.874H662.364V371.97ZM662.364 392.35H653.764V387.257H662.364V392.35ZM662.364 412.733H653.764V407.637H662.364V412.733ZM662.364 433.115H653.764V428.019H662.364V433.115ZM662.364 453.497H653.764V448.402H662.364V453.497ZM662.364 473.88H653.764V468.784H662.364V473.88ZM662.364 494.26H653.764V489.165H662.364V494.26ZM662.364 514.642H653.764V509.558H662.364V514.642ZM662.364 535.025H653.764V529.929H662.364V535.025ZM662.364 555.407H653.764V550.311H662.364V555.407ZM662.364 575.788H653.764V570.692H662.364V575.788ZM662.364 596.17H653.764V591.074H662.364V596.17ZM662.364 616.552H653.764V611.457H662.364V616.552ZM662.364 636.935H653.764V631.839H662.364V636.935ZM662.364 657.317H653.764V652.221H662.364V657.317ZM662.364 677.697H653.764V672.602H662.364V677.697ZM662.364 698.08H653.764V692.984H662.364V698.08ZM662.364 718.462H653.764V713.366H662.364V718.462ZM662.364 738.844H653.764V733.749H662.364V738.844ZM662.364 759.225H653.764V754.129H662.364V759.225ZM662.364 779.607H653.764V774.512H662.364V779.607ZM662.364 800H653.764V794.904H662.364V800ZM627.955 5.09556H619.355V-1.04904e-05H627.955V5.09556ZM627.955 25.4761H619.355V20.3805H627.955V25.4761ZM627.955 45.8584H619.355V40.7628H627.955V45.8584ZM627.955 66.2407H619.355V61.1451H627.955V66.2407ZM627.955 86.623H619.355V81.5274H627.955V86.623ZM627.955 107.005H619.355V101.91H627.955V107.005ZM627.955 127.386H619.355V122.301H627.955V127.386ZM627.955 147.768H619.355V142.673H627.955V147.768ZM627.955 168.15H619.355V163.055H627.955V168.15ZM627.955 188.533H619.355V183.437H627.955V188.533ZM627.955 208.913H619.355V203.818H627.955V208.913ZM627.955 229.296H619.355V224.2H627.955V229.296ZM627.955 249.678H619.355V244.582H627.955V249.678ZM627.955 270.06H619.355V264.965H627.955V270.06ZM627.955 290.442H619.355V285.347H627.955V290.442ZM627.955 310.823H619.355V305.727H627.955V310.823ZM627.955 331.205H619.355V326.11H627.955V331.205ZM627.955 351.588H619.355V346.492H627.955V351.588ZM627.955 371.97H619.355V366.874H627.955V371.97ZM627.955 392.35H619.355V387.257H627.955V392.35ZM627.955 412.733H619.355V407.637H627.955V412.733ZM627.955 433.115H619.355V428.019H627.955V433.115ZM627.955 453.497H619.355V448.402H627.955V453.497ZM627.955 473.88H619.355V468.784H627.955V473.88ZM627.955 494.26H619.355V489.165H627.955V494.26ZM627.955 514.642H619.355V509.558H627.955V514.642ZM627.955 535.025H619.355V529.929H627.955V535.025ZM627.955 555.407H619.355V550.311H627.955V555.407ZM627.955 575.788H619.355V570.692H627.955V575.788ZM627.955 596.17H619.355V591.074H627.955V596.17ZM627.955 616.552H619.355V611.457H627.955V616.552ZM627.955 636.935H619.355V631.839H627.955V636.935ZM627.955 657.317H619.355V652.221H627.955V657.317ZM627.955 677.697H619.355V672.602H627.955V677.697ZM627.955 698.08H619.355V692.984H627.955V698.08ZM627.955 718.462H619.355V713.366H627.955V718.462ZM627.955 738.844H619.355V733.749H627.955V738.844ZM627.955 759.225H619.355V754.129H627.955V759.225ZM627.955 779.607H619.355V774.512H627.955V779.607ZM627.955 800H619.355V794.904H627.955V800ZM593.549 5.09556H584.946V-1.04904e-05H593.549V5.09556ZM593.549 25.4761H584.946V20.3805H593.549V25.4761ZM593.549 45.8584H584.946V40.7628H593.549V45.8584ZM593.549 66.2407H584.946V61.1451H593.549V66.2407ZM593.549 86.623H584.946V81.5274H593.549V86.623ZM593.549 107.005H584.946V101.91H593.549V107.005ZM593.549 127.386H584.946V122.301H593.549V127.386ZM593.549 147.768H584.946V142.673H593.549V147.768ZM593.549 168.15H584.946V163.055H593.549V168.15ZM593.549 188.533H584.946V183.437H593.549V188.533ZM593.549 208.913H584.946V203.818H593.549V208.913ZM593.549 229.296H584.946V224.2H593.549V229.296ZM593.549 249.678H584.946V244.582H593.549V249.678ZM593.549 270.06H584.946V264.965H593.549V270.06ZM593.549 290.442H584.946V285.347H593.549V290.442ZM593.549 310.823H584.946V305.727H593.549V310.823ZM593.549 331.205H584.946V326.11H593.549V331.205ZM593.549 351.588H584.946V346.492H593.549V351.588ZM593.549 371.97H584.946V366.874H593.549V371.97ZM593.549 392.35H584.946V387.257H593.549V392.35ZM593.549 412.733H584.946V407.637H593.549V412.733ZM593.549 433.115H584.946V428.019H593.549V433.115ZM593.549 453.497H584.946V448.402H593.549V453.497ZM593.549 473.88H584.946V468.784H593.549V473.88ZM593.549 494.26H584.946V489.165H593.549V494.26ZM593.549 514.642H584.946V509.558H593.549V514.642ZM593.549 535.025H584.946V529.929H593.549V535.025ZM593.549 555.407H584.946V550.311H593.549V555.407ZM593.549 575.788H584.946V570.692H593.549V575.788ZM593.549 596.17H584.946V591.074H593.549V596.17ZM593.549 616.552H584.946V611.457H593.549V616.552ZM593.549 636.935H584.946V631.839H593.549V636.935ZM593.549 657.317H584.946V652.221H593.549V657.317ZM593.549 677.697H584.946V672.602H593.549V677.697ZM593.549 698.08H584.946V692.984H593.549V698.08ZM593.549 718.462H584.946V713.366H593.549V718.462ZM593.549 738.844H584.946V733.749H593.549V738.844ZM593.549 759.225H584.946V754.129H593.549V759.225ZM593.549 779.607H584.946V774.512H593.549V779.607ZM593.549 800H584.946V794.904H593.549V800ZM559.14 5.09556H550.537V-1.04904e-05H559.14V5.09556ZM559.14 25.4761H550.537V20.3805H559.14V25.4761ZM559.14 45.8584H550.537V40.7628H559.14V45.8584ZM559.14 66.2407H550.537V61.1451H559.14V66.2407ZM559.14 86.623H550.537V81.5274H559.14V86.623ZM559.14 107.005H550.537V101.91H559.14V107.005ZM559.14 127.386H550.537V122.301H559.14V127.386ZM559.14 147.768H550.537V142.673H559.14V147.768ZM559.14 168.15H550.537V163.055H559.14V168.15ZM559.14 188.533H550.537V183.437H559.14V188.533ZM559.14 208.913H550.537V203.818H559.14V208.913ZM559.14 229.296H550.537V224.2H559.14V229.296ZM559.14 249.678H550.537V244.582H559.14V249.678ZM559.14 270.06H550.537V264.965H559.14V270.06ZM559.14 290.442H550.537V285.347H559.14V290.442ZM559.14 310.823H550.537V305.727H559.14V310.823ZM559.14 331.205H550.537V326.11H559.14V331.205ZM559.14 351.588H550.537V346.492H559.14V351.588ZM559.14 371.97H550.537V366.874H559.14V371.97ZM559.14 392.35H550.537V387.257H559.14V392.35ZM559.14 412.733H550.537V407.637H559.14V412.733ZM559.14 433.115H550.537V428.019H559.14V433.115ZM559.14 453.497H550.537V448.402H559.14V453.497ZM559.14 473.88H550.537V468.784H559.14V473.88ZM559.14 494.26H550.537V489.165H559.14V494.26ZM559.14 514.642H550.537V509.558H559.14V514.642ZM559.14 535.025H550.537V529.929H559.14V535.025ZM559.14 555.407H550.537V550.311H559.14V555.407ZM559.14 575.788H550.537V570.692H559.14V575.788ZM559.14 596.17H550.537V591.074H559.14V596.17ZM559.14 616.552H550.537V611.457H559.14V616.552ZM559.14 636.935H550.537V631.839H559.14V636.935ZM559.14 657.317H550.537V652.221H559.14V657.317ZM559.14 677.697H550.537V672.602H559.14V677.697ZM559.14 698.08H550.537V692.984H559.14V698.08ZM559.14 718.462H550.537V713.366H559.14V718.462ZM559.14 738.844H550.537V733.749H559.14V738.844ZM559.14 759.225H550.537V754.129H559.14V759.225ZM559.14 779.607H550.537V774.512H559.14V779.607ZM559.14 800H550.537V794.904H559.14V800ZM524.731 5.09556H516.119V-1.04904e-05H524.719L524.731 5.09556ZM524.731 25.4761H516.119V20.3805H524.719L524.731 25.4761ZM524.731 45.8584H516.119V40.7628H524.719L524.731 45.8584ZM524.731 66.2407H516.119V61.1451H524.719L524.731 66.2407ZM524.731 86.623H516.119V81.5274H524.719L524.731 86.623ZM524.731 107.005H516.119V101.91H524.719L524.731 107.005ZM524.731 127.386H516.119V122.301H524.719L524.731 127.386ZM524.731 147.768H516.119V142.673H524.719L524.731 147.768ZM524.731 168.15H516.119V163.055H524.719L524.731 168.15ZM524.731 188.533H516.119V183.437H524.719L524.731 188.533ZM524.731 208.913H516.119V203.818H524.719L524.731 208.913ZM524.731 229.296H516.119V224.2H524.719L524.731 229.296ZM524.731 249.678H516.119V244.582H524.719L524.731 249.678ZM524.731 270.06H516.119V264.965H524.719L524.731 270.06ZM524.731 290.442H516.119V285.347H524.719L524.731 290.442ZM524.731 310.823H516.119V305.727H524.719L524.731 310.823ZM524.731 331.205H516.119V326.11H524.719L524.731 331.205ZM524.731 351.588H516.119V346.492H524.719L524.731 351.588ZM524.731 371.97H516.119V366.874H524.719L524.731 371.97ZM524.731 392.35H516.119V387.257H524.719L524.731 392.35ZM524.731 412.733H516.119V407.637H524.719L524.731 412.733ZM524.731 433.115H516.119V428.019H524.719L524.731 433.115ZM524.731 453.497H516.119V448.402H524.719L524.731 453.497ZM524.731 473.88H516.119V468.784H524.719L524.731 473.88ZM524.731 494.26H516.119V489.165H524.719L524.731 494.26ZM524.731 514.642H516.119V509.558H524.719L524.731 514.642ZM524.731 535.025H516.119V529.929H524.719L524.731 535.025ZM524.731 555.407H516.119V550.311H524.719L524.731 555.407ZM524.731 575.788H516.119V570.692H524.719L524.731 575.788ZM524.731 596.17H516.119V591.074H524.719L524.731 596.17ZM524.731 616.552H516.119V611.457H524.719L524.731 616.552ZM524.731 636.935H516.119V631.839H524.719L524.731 636.935ZM524.731 657.317H516.119V652.221H524.719L524.731 657.317ZM524.731 677.697H516.119V672.602H524.719L524.731 677.697ZM524.731 698.08H516.119V692.984H524.719L524.731 698.08ZM524.731 718.462H516.119V713.366H524.719L524.731 718.462ZM524.731 738.844H516.119V733.749H524.719L524.731 738.844ZM524.731 759.225H516.119V754.129H524.719L524.731 759.225ZM524.731 779.607H516.119V774.512H524.719L524.731 779.607ZM524.731 800H516.119V794.904H524.719L524.731 800ZM490.322 5.09556H481.722V-1.04904e-05H490.322V5.09556ZM490.322 25.4761H481.722V20.3805H490.322V25.4761ZM490.322 45.8584H481.722V40.7628H490.322V45.8584ZM490.322 66.2407H481.722V61.1451H490.322V66.2407ZM490.322 86.623H481.722V81.5274H490.322V86.623ZM490.322 107.005H481.722V101.91H490.322V107.005ZM490.322 127.386H481.722V122.301H490.322V127.386ZM490.322 147.768H481.722V142.673H490.322V147.768ZM490.322 168.15H481.722V163.055H490.322V168.15ZM490.322 188.533H481.722V183.437H490.322V188.533ZM490.322 208.913H481.722L481.722 203.818H490.322L490.322 208.913ZM490.322 229.296H481.722V224.2H490.322V229.296ZM490.322 249.678H481.722V244.582H490.322V249.678ZM490.322 270.06H481.722V264.965H490.322V270.06ZM490.322 290.442H481.722V285.347H490.322V290.442ZM490.322 310.823H481.722V305.727H490.322V310.823ZM490.322 331.205H481.722V326.11H490.322V331.205ZM490.322 351.588H481.722V346.492H490.322V351.588ZM490.322 371.97H481.722V366.874H490.322V371.97ZM490.322 392.35H481.722V387.257H490.322V392.35ZM490.322 412.733H481.722V407.637H490.322V412.733ZM490.322 433.115H481.722V428.019H490.322V433.115ZM490.322 453.497H481.722V448.402H490.322V453.497ZM490.322 473.88H481.722L481.722 468.784H490.322L490.322 473.88ZM490.322 494.26H481.722V489.165H490.322V494.26ZM490.322 514.642H481.722V509.558H490.322V514.642ZM490.322 535.025H481.722V529.929H490.322V535.025ZM490.322 555.407H481.722V550.311H490.322V555.407ZM490.322 575.788H481.722V570.692H490.322V575.788ZM490.322 596.17H481.722V591.074H490.322V596.17ZM490.322 616.552H481.722V611.457H490.322V616.552ZM490.322 636.935H481.722V631.839H490.322V636.935ZM490.322 657.317H481.722V652.221H490.322V657.317ZM490.322 677.697H481.722V672.602H490.322V677.697ZM490.322 698.08H481.722V692.984H490.322V698.08ZM490.322 718.462H481.722V713.366H490.322V718.462ZM490.322 738.844H481.722L481.722 733.749H490.322L490.322 738.844ZM490.322 759.225H481.722V754.129H490.322V759.225ZM490.322 779.607H481.722V774.512H490.322V779.607ZM490.322 800H481.722V794.904H490.322V800ZM455.916 5.09556H447.313V-1.04904e-05H455.916V5.09556ZM455.916 25.4761H447.313V20.3805H455.916V25.4761ZM455.916 45.8584H447.313V40.7628H455.916V45.8584ZM455.916 66.2407H447.313V61.1451H455.916V66.2407ZM455.916 86.623H447.313V81.5274H455.916V86.623ZM455.916 107.005H447.313V101.91H455.916V107.005ZM455.916 127.386H447.313V122.301H455.916V127.386ZM455.916 147.768H447.313V142.673H455.916V147.768ZM455.916 168.15H447.313V163.055H455.916V168.15ZM455.916 188.533H447.313V183.437H455.916V188.533ZM455.916 208.913H447.313L447.313 203.818H455.916L455.916 208.913ZM455.916 229.296H447.313V224.2H455.916V229.296ZM455.916 249.678H447.313V244.582H455.916V249.678ZM455.916 270.06H447.313V264.965H455.916V270.06ZM455.916 290.442H447.313V285.347H455.916V290.442ZM455.916 310.823H447.313V305.727H455.916V310.823ZM455.916 331.205H447.313V326.11H455.916V331.205ZM455.916 351.588H447.313V346.492H455.916V351.588ZM455.916 371.97H447.313V366.874H455.916V371.97ZM455.916 392.35H447.313V387.257H455.916V392.35ZM455.916 412.733H447.313V407.637H455.916V412.733ZM455.916 433.115H447.313V428.019H455.916V433.115ZM455.916 453.497H447.313V448.402H455.916V453.497ZM455.916 473.88H447.313L447.313 468.784H455.916L455.916 473.88ZM455.916 494.26H447.313V489.165H455.916V494.26ZM455.916 514.642H447.313V509.558H455.916V514.642ZM455.916 535.025H447.313V529.929H455.916V535.025ZM455.916 555.407H447.313V550.311H455.916V555.407ZM455.916 575.788H447.313V570.692H455.916V575.788ZM455.916 596.17H447.313V591.074H455.916V596.17ZM455.916 616.552H447.313V611.457H455.916V616.552ZM455.916 636.935H447.313V631.839H455.916V636.935ZM455.916 657.317H447.313V652.221H455.916V657.317ZM455.916 677.697H447.313V672.602H455.916V677.697ZM455.916 698.08H447.313V692.984H455.916V698.08ZM455.916 718.462H447.313V713.366H455.916V718.462ZM455.916 738.844H447.313L447.313 733.749H455.916L455.916 738.844ZM455.916 759.225H447.313V754.129H455.916V759.225ZM455.916 779.607H447.313V774.512H455.916V779.607ZM455.913 800H447.31V794.904H455.913V800ZM421.493 5.09556H412.89V-1.04904e-05H421.493V5.09556ZM421.493 25.4761H412.89V20.3805H421.493V25.4761ZM421.493 45.8584H412.89V40.7628H421.493V45.8584ZM421.493 66.2407H412.89V61.1451H421.493V66.2407ZM421.493 86.623H412.89V81.5274H421.493V86.623ZM421.493 107.005H412.89V101.91H421.493V107.005ZM421.493 127.386H412.89V122.301H421.493V127.386ZM421.493 147.768H412.89V142.673H421.493V147.768ZM421.493 168.15H412.89V163.055H421.493V168.15ZM421.493 188.533H412.89V183.437H421.493V188.533ZM421.493 208.913H412.89L412.89 203.818H421.493L421.493 208.913ZM421.493 229.296H412.89V224.2H421.493V229.296ZM421.493 249.678H412.89V244.582H421.493V249.678ZM421.493 270.06H412.89V264.965H421.493V270.06ZM421.493 290.442H412.89V285.347H421.493V290.442ZM421.493 310.823H412.89V305.727H421.493V310.823ZM421.493 331.205H412.89V326.11H421.493V331.205ZM421.493 351.588H412.89V346.492H421.493V351.588ZM421.493 371.97H412.89V366.874H421.493V371.97ZM421.493 392.35H412.89V387.257H421.493V392.35ZM421.493 412.733H412.89V407.637H421.493V412.733ZM421.493 433.115H412.89V428.019H421.493V433.115ZM421.493 453.497H412.89V448.402H421.493V453.497ZM421.493 473.88H412.89L412.89 468.784H421.493L421.493 473.88ZM421.493 494.26H412.89V489.165H421.493V494.26ZM421.493 514.642H412.89V509.558H421.493V514.642ZM421.493 535.025H412.89V529.929H421.493V535.025ZM421.493 555.407H412.89V550.311H421.493V555.407ZM421.493 575.788H412.89V570.692H421.493V575.788ZM421.493 596.17H412.89V591.074H421.493V596.17ZM421.493 616.552H412.89V611.457H421.493V616.552ZM421.493 636.935H412.89V631.839H421.493V636.935ZM421.493 657.317H412.89V652.221H421.493V657.317ZM421.493 677.697H412.89V672.602H421.493V677.697ZM421.493 698.08H412.89V692.984H421.493V698.08ZM421.493 718.462H412.89V713.366H421.493V718.462ZM421.493 738.844H412.89L412.89 733.749H421.493L421.493 738.844ZM421.493 759.225H412.89V754.129H421.493V759.225ZM421.493 779.607H412.89V774.512H421.493V779.607ZM421.493 800H412.89V794.904H421.493V800ZM387.084 5.09556H378.507V-1.04904e-05H387.107L387.084 5.09556ZM387.084 25.4761H378.507V20.3805H387.107L387.084 25.4761ZM387.084 45.8584H378.507V40.7628H387.107L387.084 45.8584ZM387.084 66.2407H378.507V61.1451H387.107L387.084 66.2407ZM387.084 86.623H378.507V81.5274H387.107L387.084 86.623ZM387.084 107.005H378.507V101.91H387.107L387.084 107.005ZM387.084 127.386H378.507V122.301H387.107L387.084 127.386ZM387.084 147.768H378.507V142.673H387.107L387.084 147.768ZM387.084 168.15H378.507V163.055H387.107L387.084 168.15ZM387.084 188.533H378.507V183.437H387.107L387.084 188.533ZM387.084 208.913H378.507L378.507 203.818H387.107L387.084 208.913ZM387.084 229.296H378.507V224.2H387.107L387.084 229.296ZM387.084 249.678H378.507V244.582H387.107L387.084 249.678ZM387.084 270.06H378.507V264.965H387.107L387.084 270.06ZM387.084 290.442H378.507V285.347H387.107L387.084 290.442ZM387.084 310.823H378.507V305.727H387.107L387.084 310.823ZM387.084 331.205H378.507V326.11H387.107L387.084 331.205ZM387.084 351.588H378.507V346.492H387.107L387.084 351.588ZM387.084 371.97H378.507V366.874H387.107L387.084 371.97ZM387.084 392.35H378.507V387.257H387.107L387.084 392.35ZM387.084 412.733H378.507V407.637H387.107L387.084 412.733ZM387.084 433.115H378.507V428.019H387.107L387.084 433.115ZM387.084 453.497H378.507V448.402H387.107L387.084 453.497ZM387.084 473.88H378.507L378.507 468.784H387.107L387.084 473.88ZM387.084 494.26H378.507V489.165H387.107L387.084 494.26ZM387.084 514.642H378.507V509.558H387.107L387.084 514.642ZM387.084 535.025H378.507V529.929H387.107L387.084 535.025ZM387.084 555.407H378.507V550.311H387.107L387.084 555.407ZM387.084 575.788H378.507V570.692H387.107L387.084 575.788ZM387.084 596.17H378.507V591.074H387.107L387.084 596.17ZM387.084 616.552H378.507V611.457H387.107L387.084 616.552ZM387.084 636.935H378.507V631.839H387.107L387.084 636.935ZM387.084 657.317H378.507V652.221H387.107L387.084 657.317ZM387.084 677.697H378.507V672.602H387.107L387.084 677.697ZM387.084 698.08H378.507V692.984H387.107L387.084 698.08ZM387.084 718.462H378.507V713.366H387.107L387.084 718.462ZM387.084 738.844H378.507L378.507 733.749H387.107L387.084 738.844ZM387.084 759.225H378.507V754.129H387.107L387.084 759.225ZM387.084 779.607H378.507V774.512H387.107L387.084 779.607ZM387.096 800H378.507V794.904H387.107L387.096 800ZM352.687 5.09556H344.087V-1.04904e-05H352.687V5.09556ZM352.687 25.4761H344.087V20.3805H352.687V25.4761ZM352.687 45.8584H344.087V40.7628H352.687V45.8584ZM352.687 66.2407H344.087V61.1451H352.687V66.2407ZM352.687 86.623H344.087V81.5274H352.687V86.623ZM352.687 107.005H344.087V101.91H352.687V107.005ZM352.687 127.386H344.087V122.301H352.687V127.386ZM352.687 147.768H344.087V142.673H352.687V147.768ZM352.687 168.15H344.087V163.055H352.687V168.15ZM352.687 188.533H344.087V183.437H352.687V188.533ZM352.687 208.913H344.087L344.087 203.818H352.687L352.687 208.913ZM352.687 229.296H344.087V224.2H352.687V229.296ZM352.687 249.678H344.087V244.582H352.687V249.678ZM352.687 270.06H344.087V264.965H352.687V270.06ZM352.687 290.442H344.087V285.347H352.687V290.442ZM352.687 310.823H344.087V305.727H352.687V310.823ZM352.687 331.205H344.087V326.11H352.687V331.205ZM352.687 351.588H344.087V346.492H352.687V351.588ZM352.687 371.97H344.087V366.874H352.687V371.97ZM352.687 392.35H344.087V387.257H352.687V392.35ZM352.687 412.733H344.087V407.637H352.687V412.733ZM352.687 433.115H344.087V428.019H352.687V433.115ZM352.687 453.497H344.087V448.402H352.687V453.497ZM352.687 473.88H344.087L344.087 468.784H352.687L352.687 473.88ZM352.687 494.26H344.087V489.165H352.687V494.26ZM352.687 514.642H344.087V509.558H352.687V514.642ZM352.687 535.025H344.087V529.929H352.687V535.025ZM352.687 555.407H344.087V550.311H352.687V555.407ZM352.687 575.788H344.087V570.692H352.687V575.788ZM352.687 596.17H344.087V591.074H352.687V596.17ZM352.687 616.552H344.087V611.457H352.687V616.552ZM352.687 636.935H344.087V631.839H352.687V636.935ZM352.687 657.317H344.087V652.221H352.687V657.317ZM352.687 677.697H344.087V672.602H352.687V677.697ZM352.687 698.08H344.087V692.984H352.687V698.08ZM352.687 718.462H344.087V713.366H352.687V718.462ZM352.687 738.844H344.087L344.087 733.749H352.687L352.687 738.844ZM352.687 759.225H344.087V754.129H352.687V759.225ZM352.687 779.607H344.087V774.512H352.687V779.607ZM352.687 800H344.087V794.904H352.687V800ZM318.278 5.09556H309.678V-1.04904e-05H318.278V5.09556ZM318.278 25.4761H309.678V20.3805H318.278V25.4761ZM318.278 45.8584H309.678V40.7628H318.278V45.8584ZM318.278 66.2407H309.678V61.1451H318.278V66.2407ZM318.278 86.623H309.678V81.5274H318.278V86.623ZM318.278 107.005H309.678V101.91H318.278V107.005ZM318.278 127.386H309.678V122.301H318.278V127.386ZM318.278 147.768H309.678V142.673H318.278V147.768ZM318.278 168.15H309.678V163.055H318.278V168.15ZM318.278 188.533H309.678V183.437H318.278V188.533ZM318.278 208.913H309.678L309.678 203.818H318.278L318.278 208.913ZM318.278 229.296H309.678V224.2H318.278V229.296ZM318.278 249.678H309.678V244.582H318.278V249.678ZM318.278 270.06H309.678V264.965H318.278V270.06ZM318.278 290.442H309.678V285.347H318.278V290.442ZM318.278 310.823H309.678V305.727H318.278V310.823ZM318.278 331.205H309.678V326.11H318.278V331.205ZM318.278 351.588H309.678V346.492H318.278V351.588ZM318.278 371.97H309.678V366.874H318.278V371.97ZM318.278 392.35H309.678V387.257H318.278V392.35ZM318.278 412.733H309.678V407.637H318.278V412.733ZM318.278 433.115H309.678V428.019H318.278V433.115ZM318.278 453.497H309.678V448.402H318.278V453.497ZM318.278 473.88H309.678L309.678 468.784H318.278L318.278 473.88ZM318.278 494.26H309.678V489.165H318.278V494.26ZM318.278 514.642H309.678V509.558H318.278V514.642ZM318.278 535.025H309.678V529.929H318.278V535.025ZM318.278 555.407H309.678V550.311H318.278V555.407ZM318.278 575.788H309.678V570.692H318.278V575.788ZM318.278 596.17H309.678V591.074H318.278V596.17ZM318.278 616.552H309.678V611.457H318.278V616.552ZM318.278 636.935H309.678V631.839H318.278V636.935ZM318.278 657.317H309.678V652.221H318.278V657.317ZM318.278 677.697H309.678V672.602H318.278V677.697ZM318.278 698.08H309.678V692.984H318.278V698.08ZM318.278 718.462H309.678V713.366H318.278V718.462ZM318.278 738.844H309.678L309.678 733.749H318.278L318.278 738.844ZM318.278 759.225H309.678V754.129H318.278V759.225ZM318.278 779.607H309.678V774.512H318.278V779.607ZM318.278 800H309.678V794.904H318.278V800ZM283.881 5.09556H275.269V-1.04904e-05H283.881V5.09556ZM283.881 25.4761H275.269V20.3805H283.881V25.4761ZM283.881 45.8584H275.269V40.7628H283.881V45.8584ZM283.881 66.2407H275.269V61.1451H283.881V66.2407ZM283.881 86.623H275.269V81.5274H283.881V86.623ZM283.881 107.005H275.269V101.91H283.881V107.005ZM283.881 127.386H275.269V122.301H283.881V127.386ZM283.881 147.768H275.269V142.673H283.881V147.768ZM283.881 168.15H275.269V163.055H283.881V168.15ZM283.881 188.533H275.269V183.437H283.881V188.533ZM283.881 208.913H275.269L275.269 203.818H283.881L283.881 208.913ZM283.881 229.296H275.269V224.2H283.881V229.296ZM283.881 249.678H275.269V244.582H283.881V249.678ZM283.881 270.06H275.269V264.965H283.881V270.06ZM283.881 290.442H275.269V285.347H283.881V290.442ZM283.881 310.823H275.269V305.727H283.881V310.823ZM283.881 331.205H275.269V326.11H283.881V331.205ZM283.881 351.588H275.269V346.492H283.881V351.588ZM283.881 371.97H275.269V366.874H283.881V371.97ZM283.881 392.35H275.269V387.257H283.881V392.35ZM283.881 412.733H275.269V407.637H283.881V412.733ZM283.881 433.115H275.269V428.019H283.881V433.115ZM283.881 453.497H275.269V448.402H283.881V453.497ZM283.881 473.88H275.269L275.269 468.784H283.881L283.881 473.88ZM283.881 494.26H275.269V489.165H283.881V494.26ZM283.881 514.642H275.269V509.558H283.881V514.642ZM283.881 535.025H275.269V529.929H283.881V535.025ZM283.881 555.407H275.269V550.311H283.881V555.407ZM283.881 575.788H275.269V570.692H283.881V575.788ZM283.881 596.17H275.269V591.074H283.881V596.17ZM283.881 616.552H275.269V611.457H283.881V616.552ZM283.881 636.935H275.269V631.839H283.881V636.935ZM283.881 657.317H275.269V652.221H283.881V657.317ZM283.881 677.699H275.269V672.604H283.881V677.699ZM283.881 698.081H275.269V692.986H283.881V698.081ZM283.881 718.464H275.269V713.368H283.881V718.464ZM283.881 738.846H275.269L275.269 733.75H283.881L283.881 738.846ZM283.881 759.227H275.269V754.131H283.881V759.227ZM283.881 779.609H275.269V774.513H283.881V779.609ZM283.881 800H275.269V794.904H283.881V800ZM249.463 5.09556H240.86V-1.04904e-05H249.463V5.09556ZM249.463 25.4761H240.86V20.3805H249.463V25.4761ZM249.463 45.8584H240.86L240.86 40.7628H249.463L249.463 45.8584ZM249.463 66.2407H240.86V61.1451H249.463V66.2407ZM249.463 86.623H240.86V81.5274H249.463V86.623ZM249.463 107.005H240.86V101.91H249.463V107.005ZM249.463 127.386H240.86V122.301H249.463V127.386ZM249.463 147.768H240.86V142.673H249.463V147.768ZM249.463 168.15H240.86V163.055H249.463V168.15ZM249.463 188.533H240.86V183.437H249.463V188.533ZM249.463 208.913H240.86V203.818H249.463V208.913ZM249.463 229.296H240.86V224.2H249.463V229.296ZM249.463 249.678H240.86V244.582H249.463V249.678ZM249.463 270.06H240.86V264.965H249.463V270.06ZM249.463 290.442H240.86V285.347H249.463V290.442ZM249.463 310.823H240.86L240.86 305.727H249.463L249.463 310.823ZM249.463 331.205H240.86V326.11H249.463V331.205ZM249.463 351.588H240.86V346.492H249.463V351.588ZM249.463 371.97H240.86V366.874H249.463V371.97ZM249.463 392.35H240.86V387.257H249.463V392.35ZM249.463 412.733H240.86V407.637H249.463V412.733ZM249.463 433.115H240.86V428.019H249.463V433.115ZM249.463 453.497H240.86V448.402H249.463V453.497ZM249.463 473.88H240.86V468.784H249.463V473.88ZM249.463 494.26H240.86V489.165H249.463V494.26ZM249.463 514.642H240.86V509.558H249.463V514.642ZM249.463 535.025H240.86V529.929H249.463V535.025ZM249.463 555.407H240.86V550.311H249.463V555.407ZM249.463 575.788H240.86V570.692H249.463V575.788ZM249.463 596.17H240.86V591.074H249.463V596.17ZM249.463 616.552H240.86V611.457H249.463V616.552ZM249.463 636.935H240.86L240.86 631.839H249.463L249.463 636.935ZM249.463 657.317H240.86V652.221H249.463V657.317ZM249.463 677.697H240.86V672.602H249.463V677.697ZM249.463 698.08H240.86V692.984H249.463V698.08ZM249.463 718.462H240.86V713.366H249.463V718.462ZM249.463 738.844H240.86V733.749H249.463V738.844ZM249.463 759.225H240.86V754.129H249.463V759.225ZM249.463 779.607H240.86V774.512H249.463V779.607ZM249.463 800H240.86V794.904H249.463V800ZM215.054 5.09556H206.451V-1.04904e-05H215.051L215.054 5.09556ZM215.054 25.4761H206.451V20.3805H215.051L215.054 25.4761ZM215.054 45.8584H206.451L206.451 40.7628H215.051L215.054 45.8584ZM215.054 66.2407H206.451V61.1451H215.051L215.054 66.2407ZM215.054 86.623H206.451V81.5274H215.051L215.054 86.623ZM215.054 107.005H206.451V101.91H215.051L215.054 107.005ZM215.054 127.386H206.451V122.301H215.051L215.054 127.386ZM215.054 147.768H206.451V142.673H215.051L215.054 147.768ZM215.054 168.15H206.451V163.055H215.051L215.054 168.15ZM215.054 188.533H206.451V183.437H215.051L215.054 188.533ZM215.054 208.913H206.451V203.818H215.051L215.054 208.913ZM215.054 229.296H206.451V224.2H215.051L215.054 229.296ZM215.054 249.678H206.451V244.582H215.051L215.054 249.678ZM215.054 270.06H206.451V264.965H215.051L215.054 270.06ZM215.054 290.442H206.451V285.347H215.051L215.054 290.442ZM215.054 310.823H206.451L206.451 305.727H215.051L215.054 310.823ZM215.054 331.205H206.451V326.11H215.051L215.054 331.205ZM215.054 351.588H206.451V346.492H215.051L215.054 351.588ZM215.054 371.97H206.451V366.874H215.051L215.054 371.97ZM215.054 392.35H206.451V387.257H215.051L215.054 392.35ZM215.054 412.733H206.451V407.637H215.051L215.054 412.733ZM215.054 433.115H206.451V428.019H215.051L215.054 433.115ZM215.054 453.497H206.451V448.402H215.051L215.054 453.497ZM215.054 473.88H206.451V468.784H215.051L215.054 473.88ZM215.054 494.26H206.451V489.165H215.051L215.054 494.26ZM215.054 514.642H206.451V509.558H215.051L215.054 514.642ZM215.054 535.025H206.451V529.929H215.051L215.054 535.025ZM215.054 555.407H206.451V550.311H215.051L215.054 555.407ZM215.054 575.788H206.451V570.692H215.051L215.054 575.788ZM215.054 596.17H206.451V591.074H215.051L215.054 596.17ZM215.054 616.552H206.451V611.457H215.051L215.054 616.552ZM215.054 636.935H206.451L206.451 631.839H215.051L215.054 636.935ZM215.054 657.317H206.451V652.221H215.051L215.054 657.317ZM215.054 677.697H206.451V672.602H215.051L215.054 677.697ZM215.054 698.08H206.451V692.984H215.051L215.054 698.08ZM215.054 718.462H206.451V713.366H215.051L215.054 718.462ZM215.054 738.844H206.451V733.749H215.051L215.054 738.844ZM215.054 759.225H206.451V754.129H215.051L215.054 759.225ZM215.054 779.607H206.451V774.512H215.051L215.054 779.607ZM215.054 800H206.451V794.904H215.051L215.054 800ZM180.645 5.09556H172.042V-1.04904e-05H180.642L180.645 5.09556ZM180.645 25.4761H172.042V20.3805H180.642L180.645 25.4761ZM180.645 45.8584H172.042L172.042 40.7628H180.642L180.645 45.8584ZM180.645 66.2407H172.042V61.1451H180.642L180.645 66.2407ZM180.645 86.623H172.042V81.5274H180.642L180.645 86.623ZM180.645 107.005H172.042V101.91H180.642L180.645 107.005ZM180.645 127.386H172.042V122.301H180.642L180.645 127.386ZM180.645 147.768H172.042V142.673H180.642L180.645 147.768ZM180.645 168.15H172.042V163.055H180.642L180.645 168.15ZM180.645 188.533H172.042V183.437H180.642L180.645 188.533ZM180.645 208.913H172.042V203.818H180.642L180.645 208.913ZM180.645 229.296H172.042V224.2H180.642L180.645 229.296ZM180.645 249.678H172.042V244.582H180.642L180.645 249.678ZM180.645 270.06H172.042V264.965H180.642L180.645 270.06ZM180.645 290.442H172.042V285.347H180.642L180.645 290.442ZM180.645 310.823H172.042L172.042 305.727H180.642L180.645 310.823ZM180.645 331.205H172.042V326.11H180.642L180.645 331.205ZM180.645 351.588H172.042V346.492H180.642L180.645 351.588ZM180.645 371.97H172.042V366.874H180.642L180.645 371.97ZM180.645 392.35H172.042V387.257H180.642L180.645 392.35ZM180.645 412.733H172.042V407.637H180.642L180.645 412.733ZM180.645 433.115H172.042V428.019H180.642L180.645 433.115ZM180.645 453.497H172.042V448.402H180.642L180.645 453.497ZM180.645 473.88H172.042V468.784H180.642L180.645 473.88ZM180.645 494.26H172.042V489.165H180.642L180.645 494.26ZM180.645 514.642H172.042V509.558H180.642L180.645 514.642ZM180.645 535.025H172.042V529.929H180.642L180.645 535.025ZM180.645 555.407H172.042V550.311H180.642L180.645 555.407ZM180.645 575.788H172.042V570.692H180.642L180.645 575.788ZM180.645 596.17H172.042V591.074H180.642L180.645 596.17ZM180.645 616.552H172.042V611.457H180.642L180.645 616.552ZM180.645 636.935H172.042L172.042 631.839H180.642L180.645 636.935ZM180.645 657.317H172.042V652.221H180.642L180.645 657.317ZM180.645 677.697H172.042V672.602H180.642L180.645 677.697ZM180.645 698.08H172.042V692.984H180.642L180.645 698.08ZM180.645 718.462H172.042V713.366H180.642L180.645 718.462ZM180.645 738.844H172.042V733.749H180.642L180.645 738.844ZM180.645 759.225H172.042V754.129H180.642L180.645 759.225ZM180.645 779.607H172.042V774.512H180.642L180.645 779.607ZM180.645 800H172.042V794.904H180.642L180.645 800ZM146.239 5.09556H137.633V-1.04904e-05H146.239V5.09556ZM146.239 25.4761H137.633V20.3805H146.239V25.4761ZM146.239 45.8584H137.633L137.633 40.7628H146.239L146.239 45.8584ZM146.239 66.2407H137.633V61.1451H146.239V66.2407ZM146.239 86.623H137.633V81.5274H146.239V86.623ZM146.239 107.005H137.633V101.91H146.239V107.005ZM146.239 127.386H137.633V122.301H146.239V127.386ZM146.239 147.768H137.633V142.673H146.239V147.768ZM146.239 168.15H137.633V163.055H146.239V168.15ZM146.239 188.533H137.633V183.437H146.239V188.533ZM146.239 208.913H137.633V203.818H146.239V208.913ZM146.239 229.296H137.633V224.2H146.239V229.296ZM146.239 249.678H137.633V244.582H146.239V249.678ZM146.239 270.06H137.633V264.965H146.239V270.06ZM146.239 290.442H137.633V285.347H146.239V290.442ZM146.239 310.823H137.633L137.633 305.727H146.239L146.239 310.823ZM146.239 331.205H137.633V326.11H146.239V331.205ZM146.239 351.588H137.633V346.492H146.239V351.588ZM146.239 371.97H137.633V366.874H146.239V371.97ZM146.239 392.35H137.633V387.257H146.239V392.35ZM146.239 412.733H137.633V407.637H146.239V412.733ZM146.239 433.115H137.633V428.019H146.239V433.115ZM146.239 453.497H137.633V448.402H146.239V453.497ZM146.239 473.88H137.633V468.784H146.239V473.88ZM146.239 494.26H137.633V489.165H146.239V494.26ZM146.239 514.642H137.633V509.558H146.239V514.642ZM146.239 535.025H137.633V529.929H146.239V535.025ZM146.239 555.407H137.633V550.311H146.239V555.407ZM146.239 575.788H137.633V570.692H146.239V575.788ZM146.239 596.17H137.633V591.074H146.239V596.17ZM146.239 616.552H137.633V611.457H146.239V616.552ZM146.239 636.935H137.633L137.633 631.839H146.239L146.239 636.935ZM146.239 657.317H137.633V652.221H146.239V657.317ZM146.239 677.697H137.633V672.602H146.239V677.697ZM146.239 698.08H137.633V692.984H146.239V698.08ZM146.239 718.462H137.633V713.366H146.239V718.462ZM146.239 738.844H137.633V733.749H146.239V738.844ZM146.239 759.225H137.633V754.129H146.239V759.225ZM146.239 779.607H137.633V774.512H146.239V779.607ZM146.239 800H137.633V794.904H146.239V800ZM111.83 5.09556H103.224V-1.04904e-05H111.827L111.83 5.09556ZM111.83 25.4761H103.224V20.3805H111.827L111.83 25.4761ZM111.83 45.8584H103.224V40.7628H111.827L111.83 45.8584ZM111.83 66.2407H103.224V61.1451H111.827L111.83 66.2407ZM111.83 86.623H103.224V81.5274H111.827L111.83 86.623ZM111.83 107.005H103.224V101.91H111.827L111.83 107.005ZM111.83 127.386H103.224L103.224 122.301H111.827L111.83 127.386ZM111.83 147.768H103.224V142.673H111.827L111.83 147.768ZM111.83 168.15H103.224V163.055H111.827L111.83 168.15ZM111.83 188.533H103.224V183.437H111.827L111.83 188.533ZM111.83 208.913H103.224V203.818H111.827L111.83 208.913ZM111.83 229.296H103.224L103.224 224.2H111.827L111.83 229.296ZM111.83 249.678H103.224V244.582H111.827L111.83 249.678ZM111.83 270.06H103.224V264.965H111.827L111.83 270.06ZM111.83 290.442H103.224L103.224 285.347H111.827L111.83 290.442ZM111.83 310.823H103.224V305.727H111.827L111.83 310.823ZM111.83 331.205H103.224V326.11H111.827L111.83 331.205ZM111.83 351.588H103.224V346.492H111.827L111.83 351.588ZM111.83 371.97H103.224V366.874H111.827L111.83 371.97ZM111.83 392.35H103.224L103.224 387.257H111.827L111.83 392.35ZM111.83 412.733H103.224V407.637H111.827L111.83 412.733ZM111.83 433.115H103.224V428.019H111.827L111.83 433.115ZM111.83 453.497H103.224V448.402H111.827L111.83 453.497ZM111.83 473.88H103.224V468.784H111.827L111.83 473.88ZM111.83 494.26H103.224V489.165H111.827L111.83 494.26ZM111.83 514.642H103.224V509.558H111.827L111.83 514.642ZM111.83 535.025H103.224V529.929H111.827L111.83 535.025ZM111.83 555.407H103.224L103.224 550.311H111.827L111.83 555.407ZM111.83 575.788H103.224V570.692H111.827L111.83 575.788ZM111.83 596.17H103.224V591.074H111.827L111.83 596.17ZM111.83 616.552H103.224V611.457H111.827L111.83 616.552ZM111.83 636.935H103.224V631.839H111.827L111.83 636.935ZM111.83 657.317H103.224V652.221H111.827L111.83 657.317ZM111.83 677.697H103.224V672.602H111.827L111.83 677.697ZM111.83 698.08H103.224V692.984H111.827L111.83 698.08ZM111.83 718.462H103.224L103.224 713.366H111.827L111.83 718.462ZM111.83 738.844H103.224V733.749H111.827L111.83 738.844ZM111.83 759.225H103.224V754.129H111.827L111.83 759.225ZM111.83 779.607H103.224V774.512H111.827L111.83 779.607ZM111.83 800H103.224V794.904H111.827L111.83 800ZM77.4179 5.09556H68.8179V-1.04904e-05H77.4179V5.09556ZM77.4179 25.4761H68.8179V20.3805H77.4179V25.4761ZM77.4179 45.8584H68.8179V40.7628H77.4179V45.8584ZM77.4179 66.2407H68.8179V61.1451H77.4179V66.2407ZM77.4179 86.623H68.8179V81.5274H77.4179V86.623ZM77.4179 107.005H68.8179V101.91H77.4179V107.005ZM77.4179 127.386H68.8179L68.8179 122.301H77.4179L77.4179 127.386ZM77.4179 147.768H68.8179V142.673H77.4179V147.768ZM77.4179 168.15H68.8179V163.055H77.4179V168.15ZM77.4179 188.533H68.8179V183.437H77.4179V188.533ZM77.4179 208.913H68.8179V203.818H77.4179V208.913ZM77.4179 229.296H68.8179L68.8179 224.2H77.4179L77.4179 229.296ZM77.4179 249.678H68.8179V244.582H77.4179V249.678ZM77.4179 270.06H68.8179V264.965H77.4179V270.06ZM77.4179 290.442H68.8179L68.8179 285.347H77.4179L77.4179 290.442ZM77.4179 310.823H68.8179V305.727H77.4179V310.823ZM77.4179 331.205H68.8179V326.11H77.4179V331.205ZM77.4179 351.588H68.8179V346.492H77.4179V351.588ZM77.4179 371.97H68.8179V366.874H77.4179V371.97ZM77.4179 392.35H68.8179L68.8179 387.257H77.4179L77.4179 392.35ZM77.4179 412.733H68.8179V407.637H77.4179V412.733ZM77.4179 433.115H68.8179V428.019H77.4179V433.115ZM77.4179 453.497H68.8179V448.402H77.4179V453.497ZM77.4179 473.88H68.8179V468.784H77.4179V473.88ZM77.4179 494.26H68.8179V489.165H77.4179V494.26ZM77.4179 514.642H68.8179V509.558H77.4179V514.642ZM77.4179 535.025H68.8179V529.929H77.4179V535.025ZM77.4179 555.407H68.8179L68.8179 550.311H77.4179L77.4179 555.407ZM77.4179 575.788H68.8179V570.692H77.4179V575.788ZM77.4179 596.17H68.8179V591.074H77.4179V596.17ZM77.4179 616.552H68.8179V611.457H77.4179V616.552ZM77.4179 636.935H68.8179V631.839H77.4179V636.935ZM77.4179 657.317H68.8179V652.221H77.4179V657.317ZM77.4179 677.697H68.8179V672.602H77.4179V677.697ZM77.4179 698.08H68.8179V692.984H77.4179V698.08ZM77.4179 718.462H68.8179L68.8179 713.366H77.4179L77.4179 718.462ZM77.4179 738.844H68.8179V733.749H77.4179V738.844ZM77.4179 759.225H68.8179V754.129H77.4179V759.225ZM77.4179 779.607H68.8179V774.512H77.4179V779.607ZM77.4179 800H68.8179V794.904H77.4179V800ZM43.009 5.09556H34.409L34.409 -1.04904e-05H43.009L43.009 5.09556ZM43.009 25.4761H34.409V20.3805H43.009V25.4761ZM43.009 45.8584H34.409V40.7628H43.009V45.8584ZM43.009 66.2407H34.409V61.1451H43.009V66.2407ZM43.009 86.623H34.409L34.409 81.5274H43.009L43.009 86.623ZM43.009 107.005H34.409V101.91H43.009V107.005ZM43.009 127.386H34.409V122.301H43.009V127.386ZM43.009 147.768H34.409V142.673H43.009V147.768ZM43.009 168.15H34.409L34.409 163.055H43.009L43.009 168.15ZM43.009 188.533H34.409L34.409 183.437H43.009L43.009 188.533ZM43.009 208.913H34.409V203.818H43.009V208.913ZM43.009 229.296H34.409V224.2H43.009V229.296ZM43.009 249.678H34.409L34.409 244.582H43.009L43.009 249.678ZM43.009 270.06H34.409L34.409 264.965H43.009L43.009 270.06ZM43.009 290.442H34.409V285.347H43.009V290.442ZM43.009 310.823H34.409V305.727H43.009V310.823ZM43.009 331.205H34.409V326.11H43.009V331.205ZM43.009 351.588H34.409L34.409 346.492H43.009L43.009 351.588ZM43.009 371.97H34.409V366.874H43.009V371.97ZM43.009 392.35H34.409V387.257H43.009V392.35ZM43.009 412.733H34.409V407.637H43.009V412.733ZM43.009 433.115H34.409L34.409 428.019H43.009L43.009 433.115ZM43.009 453.497H34.409V448.402H43.009V453.497ZM43.009 473.88H34.409V468.784H43.009V473.88ZM43.009 494.26H34.409V489.165H43.009V494.26ZM43.009 514.642H34.409L34.409 509.558H43.009L43.009 514.642ZM43.009 535.025H34.409V529.929H43.009V535.025ZM43.009 555.407H34.409V550.311H43.009V555.407ZM43.009 575.788H34.409V570.692H43.009V575.788ZM43.009 596.17H34.409L34.409 591.074H43.009L43.009 596.17ZM43.009 616.552H34.409V611.457H43.009V616.552ZM43.009 636.935H34.409V631.839H43.009V636.935ZM43.009 657.317H34.409V652.221H43.009V657.317ZM43.009 677.697H34.409L34.409 672.602H43.009L43.009 677.697ZM43.009 698.08H34.409L34.409 692.984H43.009L43.009 698.08ZM43.009 718.462H34.409V713.366H43.009V718.462ZM43.009 738.844H34.409V733.749H43.009V738.844ZM43.009 759.225H34.409L34.409 754.129H43.009L43.009 759.225ZM43.009 779.607H34.409L34.409 774.512H43.009L43.009 779.607ZM43.009 800H34.409V794.904H43.009V800ZM8.6 5.09556H0L0 -1.04904e-05H8.6L8.6 5.09556ZM8.6 25.4761H0L0 20.3805H8.6L8.6 25.4761ZM8.6 45.8584H0L0 40.7628H8.6L8.6 45.8584ZM8.6 66.2407H0L0 61.1451H8.6L8.6 66.2407ZM8.6 86.623H0L0 81.5274H8.6L8.6 86.623ZM8.6 107.005H0L0 101.91H8.6L8.6 107.005ZM8.6 127.386H0L0 122.301H8.6L8.6 127.386ZM8.6 147.768H0L0 142.673H8.6L8.6 147.768ZM8.6 168.15H0L0 163.055H8.6L8.6 168.15ZM8.6 188.533H0L0 183.437H8.6L8.6 188.533ZM8.6 208.913H0L0 203.818H8.6L8.6 208.913ZM8.6 229.296H0L0 224.2H8.6L8.6 229.296ZM8.6 249.678H0L0 244.582H8.6L8.6 249.678ZM8.6 270.06H0L0 264.965H8.6L8.6 270.06ZM8.6 290.442H0L0 285.347H8.6L8.6 290.442ZM8.6 310.823H0L0 305.727H8.6L8.6 310.823ZM8.6 331.205H0L0 326.11H8.6L8.6 331.205ZM8.6 351.588H0L0 346.492H8.6L8.6 351.588ZM8.6 371.97H0L0 366.874H8.6L8.6 371.97ZM8.6 392.35H0L0 387.257H8.6L8.6 392.35ZM8.6 412.733H0L0 407.637H8.6L8.6 412.733ZM8.6 433.115H0L0 428.019H8.6L8.6 433.115ZM8.6 453.497H0L0 448.402H8.6L8.6 453.497ZM8.6 473.88H0L0 468.784H8.6L8.6 473.88ZM8.6 494.26H0L0 489.165H8.6L8.6 494.26ZM8.6 514.642H0L0 509.558H8.6L8.6 514.642ZM8.6 535.025H0L0 529.929H8.6L8.6 535.025ZM8.6 555.407H0L0 550.311H8.6L8.6 555.407ZM8.6 575.788H0L0 570.692H8.6L8.6 575.788ZM8.6 596.17H0L0 591.074H8.6L8.6 596.17ZM8.6 616.552H0L0 611.457H8.6L8.6 616.552ZM8.6 636.935H0L0 631.839H8.6L8.6 636.935ZM8.6 657.317H0L0 652.221H8.6L8.6 657.317ZM8.6 677.697H0L0 672.602H8.6L8.6 677.697ZM8.6 698.08H0L0 692.984H8.6L8.6 698.08ZM8.6 718.462H0L0 713.366H8.6L8.6 718.462ZM8.6 738.844H0L0 733.749H8.6L8.6 738.844ZM8.6 759.225H0L0 754.129H8.6L8.6 759.225ZM8.6 779.607H0L0 774.512H8.6L8.6 779.607ZM8.6 800H0L0 794.904H8.6L8.6 800Z" fill="#FCD95E"/>
</g>
</g>
</g>
<defs>
<clipPath id="clip0">
<rect width="800" height="800" fill="white"/>
</clipPath>
</defs>
</svg>
